<?xml version="1.0" encoding="UTF-8" standalone="no"?>
<!DOCTYPE svg PUBLIC "-//W3C//DTD SVG 1.1//EN" "http://www.w3.org/Graphics/SVG/1.1/DTD/svg11.dtd">
<!-- Created with Vectornator (http://vectornator.io/) -->
<svg height="100%" stroke-miterlimit="10" style="fill-rule:nonzero;clip-rule:evenodd;stroke-linecap:round;stroke-linejoin:round;" version="1.1" viewBox="0 0 2360 1640" width="100%" xml:space="preserve" xmlns="http://www.w3.org/2000/svg" xmlns:vectornator="http://vectornator.io" xmlns:xlink="http://www.w3.org/1999/xlink">
<defs/>
<g id="Capa-2" vectornator:layerName="Capa 2">
<g opacity="1">
<path d="M1677.52 220.001C1677.52 220.001 1660.71 222.654 1638.06 231.546C1640.03 231.928 1642.01 232.47 1643.96 233.1C1642.01 232.47 1640.03 231.979 1638.06 231.598C1630.18 234.692 1621.54 238.646 1612.69 243.429C1602.06 249.176 1591.14 256.245 1580.56 264.941C1570.37 273.312 1560.48 283.075 1551.75 294.685C1548.14 299.492 1544.8 304.669 1541.6 310.088C1533.48 310.641 1525.38 311.582 1517.53 313.22C1500.38 316.802 1484.18 322.976 1469.88 331.496C1464.32 334.807 1459.15 338.579 1454.23 342.576C1437.95 321.51 1420.7 303.844 1404.16 289.507C1396.05 282.486 1388.22 276.325 1380.7 270.791C1379.35 269.796 1377.9 268.659 1376.58 267.711C1376.54 267.713 1376.51 267.708 1376.47 267.711C1347.92 247.277 1326.82 237.913 1324.04 236.724C1323.84 236.639 1323.07 236.043 1322.84 236.18C1322.61 236.317 1323.06 237.098 1323.09 237.267C1323.71 239.976 1329.36 263.273 1345.43 297.118C1345.99 294.916 1346.71 292.614 1347.55 290.31C1346.71 292.614 1346.04 294.916 1345.48 297.118C1346.73 299.743 1348.18 302.587 1349.56 305.324C1363.92 333.969 1385.13 368.294 1416.42 402.66C1415.95 405.044 1415.55 407.514 1415.15 409.986C1414.87 411.686 1414.51 413.24 1414.28 415.008C1413 425.071 1412.5 436.264 1412.81 448.842C1412.87 451.496 1413.11 454.449 1413.24 457.229C1413.9 470.71 1415.38 485.768 1417.69 502.609C1419.51 515.855 1421.8 530.076 1424.64 545.737C1426.16 554.105 1427.72 562.682 1429.52 571.805C1430.08 574.63 1430.53 577.746 1430.95 580.943C1431.68 586.479 1432.14 592.674 1432.48 599.194C1433.15 612.194 1433.07 627.208 1432.48 643.124C1432.35 646.433 1432.24 649.586 1432.07 652.987C1431.58 662.841 1430.86 673.057 1430.03 683.482C1429.55 689.579 1429.13 695.57 1428.56 701.784C1426.97 718.82 1425.02 736.024 1422.93 753.118C1422.79 754.319 1422.65 755.491 1422.5 756.69C1420.08 776.27 1417.57 794.112 1414.97 811.959C1413.64 821.083 1412.28 831.294 1411 839.606C1401.88 834.507 1386.43 827.745 1367.14 821.408C1339.78 812.426 1304.47 804.4 1266.97 803.597C1263.34 803.52 1259.74 803.483 1256.08 803.546C1247.89 803.868 1239.93 804.575 1232.16 805.435C1195.72 809.473 1164.44 818.703 1141.33 827.388C1115.75 836.997 1100.16 845.846 1100.16 845.845C844.674 979.538 700.294 1209.37 694.896 1279.69C694.269 1287.86 700.926 1293.86 712.503 1298.25C713.118 1298.26 713.544 1298.28 714.157 1298.3C716.777 1298.44 787.566 1302.3 855.393 1303.09C873.818 1303.3 891.484 1303.21 907.756 1302.83C916.679 1302.64 922.278 1302.33 927.907 1302.03C915.938 1331.98 912.66 1351.13 914.066 1359.62C917.433 1379.99 966.566 1375.2 1026.58 1353.18C1077.68 1336.28 1136.61 1310.17 1184.99 1283.57C1189.34 1286.33 1195.38 1288.64 1204.15 1290.04C1223.76 1293.18 1245.16 1293.63 1268.44 1291.05C1286.92 1290.1 1305.93 1287.4 1322.51 1281.89C1335.98 1277.4 1347.01 1274.23 1360.39 1269.05C1370.3 1265.21 1381.76 1259.74 1394.92 1254.68C1414 1246.26 1439.61 1233.74 1465.96 1217.17C1470.59 1224.53 1475.94 1231.02 1481.94 1236.71C1482.33 1237.1 1482.76 1237.46 1483.16 1237.85C1484.99 1239.53 1486.76 1241.31 1488.68 1242.85C1491.44 1245.12 1494.45 1247.25 1497.59 1249.24C1520.12 1263.97 1546.97 1270.57 1571.32 1272.77C1571.81 1272.81 1572.31 1272.84 1572.8 1272.88C1594.33 1274.66 1613.81 1273.21 1625.64 1269.95C1631.79 1268.26 1637.55 1264.53 1642.31 1259.31C1642.28 1259.29 1642.24 1259.28 1642.21 1259.26C1646.49 1254.87 1649.3 1249.82 1651.16 1244.74C1651.17 1244.81 1651.2 1244.9 1651.21 1244.97C1651.99 1243.26 1652.53 1240.81 1653.02 1238.01C1654.22 1232.29 1654.45 1226.84 1654.09 1222.79C1654.09 1222.77 1654.09 1222.75 1654.09 1222.73C1654.69 1185.76 1643.6 1115.46 1619.43 1055.61C1608.02 1027.34 1594.8 1005.54 1581.88 988.249C1578.45 976.73 1573.92 965.577 1568.29 954.881C1567.05 907.898 1559.45 577.433 1596.25 526.322C1622.28 490.177 1692.7 472.788 1687.09 412.419C1685.5 395.316 1680.59 379.701 1673.2 366.055C1673.26 366.072 1673.33 366.09 1673.4 366.107C1673.05 365.431 1672.59 364.878 1672.23 364.217C1671.85 363.54 1671.56 362.787 1671.16 362.12C1671.1 362.103 1671.02 362.086 1670.96 362.069C1657.17 338.715 1634.74 325.069 1604.65 317.051C1619.06 303.671 1631.39 291.224 1640.55 280.551C1650.67 268.766 1658.05 258.603 1663.37 250.159C1662.26 247.674 1661.02 245.287 1659.46 243.299C1659.46 243.309 1659.5 243.29 1659.51 243.299C1661.07 245.287 1662.32 247.622 1663.43 250.107C1675.75 230.575 1677.52 220.001 1677.52 220.001Z" fill="#ffffff" fill-rule="nonzero" opacity="1" stroke="#ffffff" stroke-linecap="round" stroke-linejoin="round" stroke-width="15"/>
<path d="M1678.51 220.192C1678.51 220.192 1661.71 222.846 1639.06 231.739C1646.94 233.265 1655.07 236.539 1660.51 243.453C1662.07 245.441 1663.3 247.809 1664.42 250.294C1676.74 230.762 1678.51 220.192 1678.51 220.192Z" fill="#000000" fill-rule="nonzero" opacity="1" stroke="none"/>
<path d="M1101.17 845.997C845.686 979.69 701.31 1209.53 695.912 1279.84C695.285 1288.02 701.911 1294.01 713.487 1298.4C1028.09 1305.43 1084.44 1293.92 1084.44 1293.92C1084.44 1293.92 1109.91 841.426 1101.17 845.997Z" fill="#f8cf00" fill-rule="nonzero" opacity="1" stroke="none"/>
<g opacity="1">
<path d="M1485.16 925.898C1462.07 926.586 1443.46 938.976 1434.26 959.137C1412.4 1007.06 1430.42 1110.07 1445.88 1168.45C1445.88 1168.45 1455.43 1228.05 1503.09 1252.06C1541.77 1271.54 1573.18 1273.69 1608.53 1270.91C1648.5 1267.76 1653.35 1235.93 1652.04 1221.28C1647.25 1167.51 1632.09 1112.05 1604.66 1053.32C1584.05 1009.17 1573.06 961.658 1530.46 938.113C1514.48 929.283 1499.01 925.485 1485.16 925.898Z" fill="#fae49c" fill-rule="nonzero" opacity="1" stroke="none"/>
<path d="M1522.57 933.843C1547.94 965.14 1574.4 1009.66 1595.01 1053.8C1622.44 1112.54 1642.57 1199.17 1649.14 1243.46C1657.99 1224 1648.08 1130.14 1617.37 1054.08C1582.9 968.71 1531.94 938.072 1522.57 933.843Z" fill="#f3cb00" fill-rule="nonzero" opacity="1" stroke="none"/>
<path d="M1479.7 1164.38C1468.02 1164.38 1456.73 1165.89 1445.88 1168.45C1448.32 1177.66 1450.73 1186 1452.88 1192.58C1479.76 1275.11 1587.06 1278.46 1623.6 1268.4C1629.75 1266.71 1635.53 1262.98 1640.28 1257.76C1579.84 1218.85 1549.58 1164.38 1479.7 1164.38Z" fill="#b83d00" fill-rule="nonzero" opacity="0.05" stroke="none"/>
</g>
<path d="M1325.02 236.876L1324.12 237.444C1324.74 240.152 1330.39 263.437 1346.46 297.281C1348.69 288.472 1352.88 278.007 1361.17 272.619C1365.78 269.623 1371.62 268.353 1377.56 267.913C1348.98 247.449 1327.81 238.066 1325.02 236.876Z" fill="#000000" fill-rule="nonzero" opacity="1" stroke="none"/>
<path d="M956.525 1233.78C955.571 1233.85 906.567 1247.89 849.678 1270.66C792.789 1293.42 713.492 1298.39 713.492 1298.39C713.492 1298.39 787.333 1302.42 856.421 1303.23C959.023 1304.08 953.523 1298.97 953.523 1298.97C953.523 1298.97 965.448 1233.18 956.525 1233.78Z" fill="#fae49c" fill-rule="nonzero" opacity="1" stroke="none"/>
<path d="M957.099 1268.82C918.882 1278.16 884.146 1289.53 856.421 1303.23C890.338 1303.63 923.229 1303.28 945.442 1301.23C949.22 1292.07 953.679 1280.14 957.099 1268.82Z" fill="#b83d00" fill-rule="nonzero" opacity="0.05" stroke="none"/>
<path d="M1013.51 1152.45C928.837 1276.07 912.035 1341.51 915.06 1359.8C921.726 1400.11 1107.63 1342.12 1202.56 1246.18C1209.52 1239.16 1215.98 1231.93 1221.85 1224.52C1345.43 1068.54 1095.62 1032.59 1013.51 1152.45Z" fill="#f8cf00" fill-rule="nonzero" opacity="1" stroke="none"/>
<path d="M1678.51 220.192C1678.51 220.192 1661.71 222.846 1639.06 231.739C1646.94 233.265 1655.07 236.539 1660.51 243.453C1662.07 245.441 1663.3 247.809 1664.42 250.294C1676.74 230.762 1678.51 220.192 1678.51 220.192Z" fill="#000000" fill-rule="nonzero" opacity="1" stroke="none"/>
<path d="M1552.78 294.859C1544.04 306.49 1536.35 319.851 1530.51 335.24C1524.86 350.112 1547.98 359.177 1563.72 352.293L1563.33 350.057C1566.01 345.072 1568.04 337.595 1566.41 331.903C1565.64 329.216 1563.45 326.979 1562.83 324.26C1561.35 317.871 1566.33 310.131 1563.83 303.736C1563.46 302.778 1562.31 302.231 1561.79 301.333C1561.09 300.135 1561.17 298.582 1560.24 297.529C1558.83 295.923 1555.68 295.319 1552.78 294.859Z" fill="#ffbf00" fill-rule="nonzero" opacity="1" stroke="none"/>
<path d="M1678.51 220.192C1678.51 220.192 1661.71 222.846 1639.06 231.739C1646.94 233.265 1655.07 236.539 1660.51 243.453C1662.07 245.441 1663.3 247.809 1664.42 250.294C1676.74 230.762 1678.51 220.192 1678.51 220.192Z" fill="#000000" fill-rule="nonzero" opacity="1" stroke="none"/>
<path d="M1678.51 220.192C1678.51 220.192 1661.71 222.846 1639.06 231.739C1646.94 233.265 1655.07 236.539 1660.51 243.453C1662.07 245.441 1663.3 247.809 1664.42 250.294C1676.74 230.762 1678.51 220.192 1678.51 220.192Z" fill="#000000" fill-rule="nonzero" opacity="1" stroke="none"/>
<path d="M1678.51 220.192C1678.51 220.192 1661.71 222.846 1639.06 231.739C1646.94 233.265 1655.07 236.539 1660.51 243.453C1662.07 245.441 1663.3 247.809 1664.42 250.294C1676.74 230.762 1678.51 220.192 1678.51 220.192Z" fill="#000000" fill-rule="nonzero" opacity="1" stroke="none"/>
<path d="M1678.51 220.192C1678.51 220.192 1661.71 222.846 1639.06 231.739C1646.94 233.265 1655.07 236.539 1660.51 243.453C1662.07 245.441 1663.3 247.809 1664.42 250.294C1676.74 230.762 1678.51 220.192 1678.51 220.192Z" fill="#000000" fill-rule="nonzero" opacity="1" stroke="none"/>
<path d="M1678.51 220.192C1678.51 220.192 1661.71 222.846 1639.06 231.739C1646.94 233.265 1655.07 236.539 1660.51 243.453C1662.07 245.441 1663.3 247.809 1664.42 250.294C1676.74 230.762 1678.51 220.192 1678.51 220.192Z" fill="#000000" fill-rule="nonzero" opacity="1" stroke="none"/>
<path d="M1678.51 220.192C1678.51 220.192 1661.71 222.846 1639.06 231.739C1646.94 233.265 1655.07 236.539 1660.51 243.453C1662.07 245.441 1663.3 247.809 1664.42 250.294C1676.74 230.762 1678.51 220.192 1678.51 220.192Z" fill="#000000" fill-rule="nonzero" opacity="1" stroke="none"/>
<path d="M1678.51 220.192C1678.51 220.192 1661.71 222.846 1639.06 231.739C1646.94 233.265 1655.07 236.539 1660.51 243.453C1662.07 245.441 1663.3 247.809 1664.42 250.294C1676.74 230.762 1678.51 220.192 1678.51 220.192Z" fill="#000000" fill-rule="nonzero" opacity="1" stroke="none"/>
<path d="M1678.51 220.192C1678.51 220.192 1661.71 222.846 1639.06 231.739C1646.94 233.265 1655.07 236.539 1660.51 243.453C1662.07 245.441 1663.3 247.809 1664.42 250.294C1676.74 230.762 1678.51 220.192 1678.51 220.192Z" fill="#000000" fill-rule="nonzero" opacity="1" stroke="none"/>
<path d="M1678.51 220.192C1678.51 220.192 1661.71 222.846 1639.06 231.739C1646.94 233.265 1655.07 236.539 1660.51 243.453C1662.07 245.441 1663.3 247.809 1664.42 250.294C1676.74 230.762 1678.51 220.192 1678.51 220.192Z" fill="#000000" fill-rule="nonzero" opacity="1" stroke="none"/>
<path d="M1678.51 220.192C1678.51 220.192 1661.71 222.846 1639.06 231.739C1646.94 233.265 1655.07 236.539 1660.51 243.453C1662.07 245.441 1663.3 247.809 1664.42 250.294C1676.74 230.762 1678.51 220.192 1678.51 220.192Z" fill="#000000" fill-rule="nonzero" opacity="1" stroke="none"/>
<path d="M1678.51 220.192C1678.51 220.192 1661.71 222.846 1639.06 231.739C1646.94 233.265 1655.07 236.539 1660.51 243.453C1662.07 245.441 1663.3 247.809 1664.42 250.294C1676.74 230.762 1678.51 220.192 1678.51 220.192Z" fill="#000000" fill-rule="nonzero" opacity="1" stroke="none"/>
<path d="M1678.51 220.192C1678.51 220.192 1661.71 222.846 1639.06 231.739C1646.94 233.265 1655.07 236.539 1660.51 243.453C1662.07 245.441 1663.3 247.809 1664.42 250.294C1676.74 230.762 1678.51 220.192 1678.51 220.192Z" fill="#000000" fill-rule="nonzero" opacity="1" stroke="none"/>
<path d="M1678.51 220.192C1678.51 220.192 1661.71 222.846 1639.06 231.739C1646.94 233.265 1655.07 236.539 1660.51 243.453C1662.07 245.441 1663.3 247.809 1664.42 250.294C1676.74 230.762 1678.51 220.192 1678.51 220.192Z" fill="#000000" fill-rule="nonzero" opacity="1" stroke="none"/>
<path d="M1678.51 220.192C1678.51 220.192 1661.71 222.846 1639.06 231.739C1646.94 233.265 1655.07 236.539 1660.51 243.453C1662.07 245.441 1663.3 247.809 1664.42 250.294C1676.74 230.762 1678.51 220.192 1678.51 220.192Z" fill="#000000" fill-rule="nonzero" opacity="1" stroke="none"/>
<path d="M1631.8 270.363C1631.23 270.387 1630.66 270.511 1630.08 270.764C1628.74 271.338 1628.48 273.087 1627.49 274.101C1624.28 277.387 1619.29 278.91 1615.69 281.743C1613.94 283.127 1612.98 285.327 1611.07 286.516C1608.89 287.867 1605.93 287.502 1603.36 287.951C1597.58 288.959 1593.86 293.543 1592.09 298.463C1590.58 302.676 1591.01 310.338 1591.55 314.716C1591.85 317.135 1592.02 319.671 1593.1 321.891C1593.85 323.449 1594.66 325.098 1595.68 326.563C1615.18 309.263 1630.22 293.909 1641.55 280.709C1641.17 279.62 1640.86 278.517 1640.33 277.438C1639.2 275.092 1635.78 270.197 1631.8 270.363Z" fill="#ffbf00" fill-rule="nonzero" opacity="1" stroke="none"/>
<path d="M1639.04 231.751C1631.16 234.844 1622.53 238.815 1613.68 243.598C1614.99 246.258 1615.64 249.205 1615.01 252.142C1614.17 256.076 1611.67 253.048 1609.27 255.078C1605.68 258.115 1606.58 264.065 1601.53 266.025C1600.42 266.454 1597.58 266.241 1596.65 266.292C1591.7 266.562 1586.51 266.091 1581.55 265.124C1571.36 273.495 1561.51 283.248 1552.78 294.859C1555.68 295.319 1558.83 295.923 1560.24 297.529C1561.17 298.582 1561.09 300.135 1561.79 301.333C1562.31 302.231 1563.46 302.778 1563.83 303.736C1566.33 310.131 1561.35 317.871 1562.83 324.26C1563.45 326.979 1565.64 329.216 1566.41 331.903C1568.04 337.595 1566.01 345.072 1563.33 350.057L1563.72 352.293C1565.6 351.473 1567.39 350.481 1568.99 349.19C1578.85 341.255 1587.53 333.793 1595.68 326.563C1594.66 325.098 1593.85 323.449 1593.1 321.891C1592.02 319.671 1591.85 317.135 1591.55 314.716C1591.01 310.338 1590.58 302.676 1592.09 298.463C1593.86 293.543 1597.58 288.959 1603.36 287.951C1605.93 287.502 1608.89 287.867 1611.07 286.516C1612.98 285.327 1613.94 283.127 1615.69 281.743C1619.29 278.91 1624.28 277.387 1627.49 274.101C1628.48 273.087 1628.74 271.338 1630.08 270.764C1634.78 268.742 1639.04 274.757 1640.33 277.438C1640.86 278.517 1641.17 279.62 1641.55 280.709C1651.67 268.924 1659.07 258.75 1664.4 250.306C1663.29 247.82 1662.05 245.453 1660.49 243.465C1655.06 236.551 1646.92 233.276 1639.04 231.751Z" fill="#f8ba00" fill-rule="nonzero" opacity="1" stroke="none"/>
<path d="M1613.68 243.598C1603.05 249.345 1592.13 256.428 1581.55 265.124C1586.51 266.091 1591.7 266.562 1596.65 266.292C1597.58 266.241 1600.42 266.454 1601.53 266.025C1606.58 264.065 1605.68 258.115 1609.27 255.078C1611.67 253.048 1614.17 256.076 1615.01 252.142C1615.64 249.205 1614.99 246.258 1613.68 243.598Z" fill="#ffbf00" fill-rule="nonzero" opacity="1" stroke="none"/>
<path d="M1646.35 359.023C1619.06 358.771 1588.19 369.601 1556.23 401.84C1431.81 527.357 1540.58 627.535 1464.84 859.678C1447.33 913.356 1324.93 1106.05 1180.53 1238.43C1151.97 1240.95 1153.21 1272.13 1193.2 1284.9C1213.98 1291.53 1277.92 1297.25 1323.5 1282.08C1336.97 1277.59 1348.01 1274.42 1361.39 1269.24C1371.29 1265.4 1382.78 1259.9 1395.94 1254.84C1460.82 1226.23 1601.1 1151.48 1589.64 1023.67C1587.45 999.311 1580.47 976.317 1569.28 955.046C1568.04 908.063 1560.44 577.598 1597.25 526.486C1623.27 490.342 1693.72 472.953 1688.1 412.583C1686.36 393.858 1680.82 376.823 1672.18 362.311C1663.97 360.149 1655.45 359.107 1646.35 359.023Z" fill="#fae49c" fill-rule="nonzero" opacity="1" stroke="none"/>
<path d="M1266.74 1231.98C1246.5 1232.3 1223.05 1233.43 1198.55 1234.95C1195.65 1237.61 1148.32 1281.14 1205.15 1290.23C1255.2 1298.23 1316.36 1289.3 1392.68 1254.93C1365.35 1242.88 1317.11 1231.17 1266.74 1231.98Z" fill="#b83d00" fill-rule="nonzero" opacity="0.05" stroke="none"/>
<path d="M1191.05 1221.26C1142.65 1259.14 978.433 1344.94 919.125 1365.9C944.569 1392 1104.78 1331.73 1202.32 1274.9C1204.39 1273.75 1224.35 1254.94 1229.91 1245.5C1241.85 1225.23 1246.2 1181 1245.2 1170.57C1244.78 1166.13 1239.46 1183.37 1191.05 1221.26Z" fill="#fae49c" fill-rule="nonzero" opacity="1" stroke="none"/>
<path d="M1586.53 312.918C1586.69 315.314 1586.7 317.923 1585.39 318.898C1584.81 319.327 1583.88 318.882 1583.2 319.157C1582.17 319.578 1581.18 320.231 1580.35 320.943C1579.18 321.949 1579.23 323.95 1577.86 324.697C1574.25 326.655 1568.48 322.388 1565.34 323.247C1562.91 323.913 1563.01 325.273 1560.63 325.862C1555.52 327.129 1547.72 325.716 1542.8 324.697C1540.8 324.283 1538.89 323.348 1536.84 323.247C1533.17 323.067 1525.13 322.025 1522.75 319.157C1521.27 317.374 1519.42 315.525 1518.55 313.436C1501.39 317.019 1485.2 323.166 1470.89 331.686C1473.99 331.349 1477.34 330.577 1479.6 332.049C1482.09 333.675 1482.47 337.537 1485.24 339.323C1487.24 340.607 1490.51 339.169 1491.48 341.653C1492.69 344.768 1488.33 344.149 1487.1 344.552C1485.1 345.21 1483.93 346.609 1482.73 348.073C1482.47 348.382 1480.12 351.62 1479.6 351.878C1478.66 352.344 1477.3 351.866 1476.44 352.448C1475.41 353.143 1476.83 355.217 1475.83 355.943C1474.98 356.556 1471.26 355.963 1470.49 356.201C1469.09 356.636 1468.65 358.446 1467.38 359.153C1464.05 361.014 1460.77 359.689 1457.36 361.172C1455.78 361.855 1454.57 363.13 1452.98 363.786C1450.3 364.895 1443.84 366.07 1440.77 366.427C1437.89 366.761 1435.9 365.881 1434.46 364.382C1427.75 373.689 1422.65 384.093 1419.35 395.446C1419.25 398.423 1419.5 401.468 1419.5 404.274C1419.5 405.836 1420.3 408.936 1418.23 409.813C1417.54 410.102 1416.87 410.173 1416.17 410.15C1415.89 411.851 1415.53 413.404 1415.3 415.172C1415.52 415.126 1415.89 415.094 1416.06 415.043C1416.79 414.832 1417.56 414.808 1418.23 414.473C1418.94 414.114 1419.3 412.969 1420.11 413.023C1421.15 413.093 1421.71 414.284 1422.6 414.784C1427.91 417.748 1427.9 415.269 1428.25 421.463C1428.42 424.446 1432.41 426.567 1432.93 429.332C1433.38 431.716 1432.93 435.053 1432.93 437.461C1432.93 439.095 1433.53 442.213 1432.32 443.622C1431.02 445.141 1427.75 444.585 1426.06 445.046C1421.91 446.183 1418.08 448.562 1413.8 448.981C1413.86 451.634 1414.12 454.613 1414.26 457.394C1418.31 454.719 1427.94 457.675 1430.74 460.811C1433.42 463.802 1437.54 469.11 1438.28 473.004C1438.92 476.39 1437.52 479.158 1436.06 482.064C1434.81 484.553 1434.91 487.46 1433.59 489.908C1432.11 492.671 1429.29 495.027 1426.98 497.182C1424.68 499.319 1421.79 500.697 1419.17 502.437C1418.99 502.556 1418.88 502.656 1418.71 502.774C1420.53 516.019 1422.79 530.24 1425.63 545.901C1427.02 546.046 1428.45 546.438 1429.4 546.575C1430.79 546.774 1436.61 547.554 1437.49 547.299C1438.37 547.041 1439.04 546.301 1439.93 546.057C1443.52 545.073 1450.35 547.598 1453.49 549.06C1454.44 549.501 1455.66 550.863 1456.21 551.597C1461.15 558.108 1461.63 562.966 1461.63 570.753C1461.63 574.535 1461.2 583.601 1457.54 586.156C1456.92 586.587 1456.14 586.696 1455.4 586.881C1448.1 588.692 1449.46 582.485 1444.56 581.833C1440.85 581.339 1436.18 580.86 1431.94 581.134C1432.67 586.67 1433.15 592.889 1433.49 599.41C1435.01 597.469 1436.86 595.937 1439.29 596.692C1440.05 596.926 1446.82 600.437 1447.03 600.937C1447.19 601.333 1446.89 602.161 1446.85 602.49C1446.71 603.564 1447.01 604.708 1446.85 605.778C1446.65 607.069 1445.56 608.091 1445.27 609.35C1444.67 611.984 1445.61 615.276 1445.83 617.919C1445.99 619.873 1445.91 622.107 1446.42 624.003C1446.77 625.306 1448.51 625.825 1449.01 626.954C1449.44 627.9 1449.29 629.234 1449.55 630.241C1449.73 630.955 1450.27 631.381 1450.39 632.079C1450.67 633.789 1449.36 633.92 1448.73 635.082C1448.18 636.113 1447.9 637.083 1447.03 637.956C1446.38 638.599 1445.68 638.611 1444.99 639.121C1444.26 639.665 1443.94 640.642 1443.14 641.14C1443.1 641.162 1441.54 641.871 1441.38 642.02C1440.67 642.684 1440.5 643.375 1439.39 643.651C1437.96 644.007 1436.74 643.432 1435.35 643.34C1434.75 643.301 1434.08 643.314 1433.44 643.288C1433.32 646.598 1433.26 649.751 1433.08 653.151C1434.36 653.279 1435.73 653.552 1436.83 653.1C1437.74 652.723 1437.97 651.709 1438.86 651.262C1440.03 650.674 1442.36 651.351 1443.34 650.666C1443.6 650.484 1443.6 650.085 1443.85 649.89C1444.28 649.551 1447.6 649.749 1448.3 649.993C1449.05 650.253 1449.61 651.172 1450.39 651.365C1451.69 651.688 1450.94 650.91 1452.01 651.728C1452.74 652.279 1452.92 653.256 1453.39 653.954C1455.51 657.108 1455.76 664.986 1455.76 668.891C1455.75 671.696 1456.33 675.495 1454.61 677.951C1453.96 678.882 1452.73 678.857 1452.01 679.685C1451.08 680.77 1450.94 682.236 1450.06 683.336C1449.37 684.189 1448.24 684.038 1447.26 684.19C1446.38 684.325 1445.63 684.822 1444.79 685.07C1443.51 685.446 1439.16 685.372 1437.64 685.277C1436.17 685.186 1435.48 684.17 1434.2 683.724C1433.43 683.453 1431.94 683.583 1431.13 683.62C1431.1 683.621 1431.07 683.619 1431.05 683.62C1430.56 689.717 1430.13 695.735 1429.55 701.948C1430.07 702.025 1430.62 702.02 1431.07 702.259C1432.41 702.956 1434.17 704.542 1435.86 704.459C1438.78 704.316 1437.09 703.203 1439.62 702.259C1440.71 701.856 1448.16 702.457 1449.52 702.828C1451.03 703.241 1451.16 704.234 1451.71 705.391C1453.6 709.352 1455.91 713.708 1455.91 718.128C1455.91 723.073 1454.67 727.868 1451.71 732.158C1450.85 733.4 1449.46 733.716 1448.55 734.928C1446.56 737.611 1445.27 739.662 1442.6 741.763C1438.98 744.613 1435.71 748.269 1431.07 749.503C1429.08 750.034 1426.26 752.088 1423.95 753.282C1423.8 754.484 1423.67 755.682 1423.52 756.881C1437.26 757.394 1445.59 760.285 1453.57 773.267C1455.41 776.275 1458.2 778.741 1458.48 782.379C1458.62 784.186 1457.24 786.668 1456.7 788.178C1455.64 791.124 1455.48 793.094 1453.57 795.659C1451.17 798.881 1446.96 800.575 1444.64 803.969C1441.66 808.323 1441.34 808.874 1436.6 811.45C1435.59 811.995 1435.06 813.199 1433.95 813.521C1425.75 815.904 1424.16 810.742 1416.55 818.492C1415.65 819.402 1416.66 813.349 1416.09 812.279C1416.06 812.234 1415.96 812.17 1415.94 812.123C1414.61 821.247 1413.27 831.459 1411.99 839.771C1402.87 834.671 1387.48 827.908 1368.18 821.572C1295.39 862.353 1247.77 925.972 1225.47 911.245C1204.6 897.471 1224.12 853.705 1267.98 803.762C1264.35 803.684 1260.7 803.647 1257.04 803.71C1248.86 804.032 1240.95 804.739 1233.18 805.6C1188.4 843.823 1160.65 886.895 1142.93 877.825C1130.49 871.46 1131.39 852.626 1142.32 827.526C1116.74 837.135 1101.18 845.984 1101.18 845.984C1101.18 845.984 1083.11 1056.44 1001 1176.3C916.327 1299.92 1095.37 1343.84 1198.78 1258.52C1205.42 1253.04 1211.96 1247.42 1218.39 1241.67C1362.91 1112.61 1454.64 920.902 1471.94 867.884C1474.87 858.906 1477.42 850.201 1479.82 841.609C1476.72 841.259 1473.61 839.92 1470.97 838.425C1468.22 836.869 1465.2 835.57 1462.93 833.454C1460.27 830.977 1461.61 824.194 1461.61 821.391C1461.61 818.077 1460.4 811.088 1462.04 807.723C1462.43 806.916 1463.56 806.503 1463.82 805.652C1464.79 802.491 1462.97 798.539 1463.36 795.271C1463.79 791.705 1466.5 789.49 1466.95 786.107C1467.61 781.211 1464.58 771.323 1469.65 767.468C1471.72 765.889 1475 766.582 1477.64 767.028C1482.67 767.881 1490.03 771.121 1491.48 776.166C1492.55 779.891 1492.33 783.745 1492.29 787.583C1494.37 776.083 1496.04 764.987 1497.33 754.188C1497.08 754.556 1496.81 754.903 1496.29 755.146C1493.31 756.533 1490.46 753.555 1487.25 753.205C1485.68 753.033 1484.1 753.748 1482.88 752.48C1481.38 750.936 1481.42 748.296 1481.07 746.37C1480.04 740.632 1480.71 734.715 1481.48 729.026C1481.8 726.65 1481.52 724.247 1483.87 722.736C1490.59 718.409 1493.54 724.28 1497.36 728.845C1498.32 730.003 1498.9 731.336 1499.26 732.728C1500.3 720.056 1501 707.824 1501.27 696.046C1498.55 699.797 1488.83 697.499 1484.02 695.658C1480.91 694.464 1479.9 691.428 1478.09 689.031C1476.78 687.287 1474.64 685.45 1473.62 683.543C1471.67 679.914 1471.45 672.636 1472.19 668.735C1472.43 667.472 1473.43 666.471 1473.82 665.241C1474.11 664.324 1473.92 663.21 1474.56 662.367C1475.04 661.732 1477.89 660.307 1478.09 660.167C1479.21 659.406 1480.1 656.962 1481.43 656.62C1483.45 656.099 1486.57 657.42 1488.53 656.439C1490.66 655.37 1489.95 653.724 1492.8 653.1C1495.37 652.536 1500.45 656.038 1501.35 658.51C1501.17 650.172 1500.93 642.608 1500.64 634.668C1496.44 636.961 1490.33 636.183 1485.45 637.231C1482.12 637.946 1474.9 639.112 1471.71 637.464C1470.6 636.892 1469.19 634.7 1468.43 633.943C1466.84 632.377 1464.81 631.235 1463.18 629.724C1459.64 626.425 1457.88 619.737 1458.91 615.175C1459.57 612.244 1461.72 610.044 1463.18 607.487C1463.55 606.842 1463.8 605.127 1464.35 604.613C1465.27 603.761 1466.78 603.441 1467.46 602.413C1468.01 601.57 1469 598.811 1469.83 597.986C1471.83 595.974 1474.26 597.896 1476.24 596.226C1477.1 595.496 1477.07 594.145 1477.89 593.378C1478.81 592.521 1480.43 592.906 1481.66 592.498C1482.24 592.305 1482.53 591.641 1483.08 591.385C1484.78 590.596 1488.28 591.766 1489.72 592.498C1494.96 595.155 1491.64 601.207 1494.2 605.079C1495.79 607.481 1498.17 608.396 1499.77 610.205C1499.2 594.979 1498.9 580.019 1499.16 565.912C1499.11 566.187 1499.06 566.435 1499.01 566.715C1498.72 568.443 1498.98 569.956 1497.94 571.53C1496.89 573.116 1495.17 573.927 1494.66 576.06C1494.14 578.209 1495.83 580.942 1493.59 582.609C1492.23 583.619 1491.07 582.721 1489.54 583.101C1488.91 583.257 1488.52 583.944 1487.89 584.111C1484.04 585.135 1472.4 582.879 1470.03 579.839C1469.1 578.647 1469.68 577.384 1469.49 576.06C1468.97 572.394 1468.65 568.987 1468.65 565.213C1468.65 559.619 1465.83 553.81 1467.59 548.076C1468.57 544.856 1470.19 541.401 1471.4 538.213C1472.74 534.7 1474.54 530.47 1478.71 528.92C1486.97 525.845 1493.16 529.678 1499.98 532.829C1500.54 533.09 1500.91 533.494 1501.3 533.89C1504.26 508.856 1510.76 484.809 1524.3 460.707C1520.21 460.999 1514.07 460.643 1512.6 459.465C1502.58 451.438 1500.87 444.139 1500.87 432.542C1500.87 429.634 1500.28 426.161 1501.81 423.482C1503.88 419.848 1509.49 416.288 1512.47 413.308C1513.91 411.868 1514.25 409.592 1515.9 408.364C1517.54 407.145 1520.16 408.413 1522.14 407.768C1522.97 407.496 1523.42 406.616 1524.05 406.034C1527.05 403.236 1528.65 403.08 1532.8 403.989C1533.64 404.172 1534.64 404.064 1535.32 404.558C1537.2 405.935 1537.2 408.251 1538.75 409.813C1541.44 412.519 1545.6 414.053 1546.56 418.253C1547.18 420.921 1547.14 424.696 1546.87 428.271C1551.88 422.245 1557.26 416.175 1563.33 410.046C1605.94 367.061 1641.59 357.626 1674.42 366.272C1658.31 335.354 1628.36 320.42 1586.53 312.918Z" fill="#f8cf00" fill-rule="nonzero" opacity="1" stroke="none"/>
<path d="M1039.67 1293.51C1047.72 1289.98 1047.95 1283.4 1052.67 1280.63C1063.47 1274.3 1063.71 1269.41 1063.71 1269.41C1064.32 1267.73 1065.12 1266.11 1065.52 1264.38C1065.93 1262.58 1066.09 1260.73 1066.11 1258.89C1066.13 1257.5 1066.19 1256.02 1065.63 1254.73C1065.07 1253.44 1064.17 1252.12 1062.86 1251.44C1061.65 1250.81 1060.1 1251.33 1058.73 1251.14C1055.98 1250.78 1053.31 1249.9 1050.75 1248.89C1049.68 1248.47 1048.36 1248.39 1047.54 1247.63C1045.41 1245.68 1045 1242.6 1043.88 1240.03C1043.02 1238.06 1042.4 1236.31 1041.15 1234.55C1040.51 1233.64 1039.46 1232.96 1039.02 1231.95C1038.27 1230.24 1038.04 1228.38 1037.66 1226.57C1037.35 1225.02 1037.22 1223.44 1036.95 1221.88C1036.78 1220.92 1036.99 1219.78 1036.36 1219C1035.11 1217.45 1032.63 1217.11 1031.24 1215.67C1027 1211.31 1025 1209.24 1018.92 1207.31C1018.08 1207.05 1017.2 1206.57 1016.34 1206.74C1012.77 1207.45 1012.08 1212.28 1010.83 1214.71C1008.99 1218.3 1006.92 1221.8 1004.3 1224.93C1000.12 1229.94 997.698 1235.32 995.061 1241.14C994.109 1243.24 993.325 1244.3 993.491 1246.69C993.551 1247.56 994.092 1248.34 994.251 1249.19C994.592 1251.02 994.921 1254.44 994.754 1256.44C994.633 1257.9 994.169 1261.09 993.014 1262.37C992.34 1263.12 990.501 1263.01 990.388 1263.98C990.119 1266.3 991.369 1268.56 992.035 1270.8C993.336 1275.19 996.446 1279.17 998.758 1283.14C999.481 1284.38 1000.92 1287.33 1002.06 1288.4C1005.92 1292.02 1008.93 1291.46 1013.89 1292.6C1017.3 1293.39 1017.5 1293.58 1020.49 1294.75C1020.49 1294.75 1031.63 1297.04 1039.67 1293.51Z" fill="#f8ba00" fill-rule="nonzero" opacity="1" stroke="none"/>
<path d="M1014.87 1188.84C1012.74 1189.35 1019.55 1175.37 1020.91 1174.74C1023.97 1173.34 1039.09 1174.49 1042.34 1176.38C1043.39 1176.98 1044.12 1178.23 1045.19 1178.75C1046.92 1179.57 1052.32 1180.06 1053.12 1182.6C1054.31 1186.36 1054.07 1190.57 1054.82 1194.49C1055.05 1195.7 1056.14 1197.02 1055.63 1198.11C1054.88 1199.7 1052.41 1197.99 1051.11 1198.94C1049.88 1199.84 1047.71 1202.4 1047.46 1204.34C1047.38 1204.97 1048.04 1205.9 1047.59 1206.23C1045.28 1207.93 1042.37 1208.01 1039.7 1208.55C1032.68 1209.97 1026.87 1206.04 1023.53 1198.6C1021.21 1193.44 1022.2 1187.05 1014.87 1188.84Z" fill="#f8ba00" fill-rule="nonzero" opacity="1" stroke="#f8ba00" stroke-linecap="round" stroke-linejoin="round" stroke-width="2"/>
<path d="M960.716 1290.4C960.789 1285.53 968.806 1286.95 974.076 1287.85C981.571 1289.13 985.234 1305.21 990.606 1308.5C994.033 1310.6 994.51 1307.63 997.691 1308.39C1002.76 1309.61 1005.04 1313.65 1007.62 1317.37C1007.99 1317.92 1009.13 1318.46 1008.74 1319C1008.06 1319.94 1006.47 1319.85 1005.41 1320.42C999.82 1323.43 995.575 1326.22 989.696 1328.58C985.916 1330.1 983.982 1333.93 980.424 1335.52C972.028 1339.28 963.066 1335.79 956.822 1329.8C954.007 1327.1 952.192 1319.67 954.11 1316.26C955.16 1314.39 958.912 1312.77 958.212 1310.23C957.354 1307.12 954.134 1308.81 956.176 1302.84C957.214 1299.8 960.635 1295.94 960.716 1290.4Z" fill="#f8ba00" fill-rule="nonzero" opacity="1" stroke="#f8ba00" stroke-linecap="round" stroke-linejoin="round" stroke-width="2"/>
<path d="M1073.41 1249.79C1076.76 1253.02 1075.97 1238.91 1079.02 1236.36C1082.61 1233.36 1087.67 1240.24 1092.2 1239.21C1096.77 1238.16 1099.97 1233.14 1104.28 1232.54C1106.99 1232.16 1112.31 1231.19 1114.79 1232.02C1117.03 1232.77 1116.07 1234.02 1117.23 1235.83C1118.16 1237.28 1119.42 1237.36 1120.65 1238.21C1124.35 1240.79 1126.66 1247.47 1126.62 1252.32C1126.52 1264.86 1102.15 1265.43 1095.23 1269.35C1093.12 1270.53 1089.39 1278.73 1089.22 1278.73C1081.39 1278.78 1082.43 1261.45 1079.88 1256.55C1078.75 1254.39 1070.09 1246.59 1073.41 1249.79Z" fill="#f8ba00" fill-rule="nonzero" opacity="1" stroke="#f8ba00" stroke-linecap="round" stroke-linejoin="round" stroke-width="2"/>
<path d="M1069.79 1154.76C1077.16 1151.23 1076.47 1145.74 1085.48 1143.2C1093 1141.08 1101.25 1148.92 1108.63 1149.92C1117.63 1151.15 1126.64 1146.69 1134.58 1143.98C1141.97 1141.46 1155.18 1125.31 1165.1 1129.96C1171.14 1132.79 1181.82 1144.79 1178.96 1152.05C1172.42 1168.66 1148.55 1175.34 1135.68 1186.09C1126.63 1193.64 1126.1 1204.79 1118.44 1210.1C1110.96 1215.29 1096.88 1220.96 1087.92 1224.12C1084.7 1225.26 1080.27 1228 1077.75 1225.81C1074.6 1223.08 1077.31 1217.27 1074.63 1214.13C1070.56 1209.36 1060.31 1208.7 1063.14 1199.78C1065.2 1193.26 1079.41 1188.02 1079.44 1179.99C1079.46 1175.28 1059.15 1159.85 1069.79 1154.76Z" fill="#f8ba00" fill-rule="nonzero" opacity="1" stroke="#f8ba00" stroke-linecap="round" stroke-linejoin="round" stroke-width="2"/>
<path d="M1132.59 1198.87C1129.85 1195.11 1138.37 1191.48 1141.94 1188.37C1156.4 1175.75 1157.32 1190.3 1173.25 1192.11C1178.28 1192.68 1187.07 1188.27 1191.18 1189.94C1194.56 1191.31 1192.17 1217.83 1190.7 1219.3C1185.71 1224.29 1154.4 1229.74 1147.66 1227.27C1141.72 1225.1 1138.18 1206.54 1132.59 1198.87Z" fill="#f8ba00" fill-rule="nonzero" opacity="1" stroke="#f8ba00" stroke-linecap="round" stroke-linejoin="round" stroke-width="2"/>
<path d="M750.579 1201.34C756.803 1210.52 758.86 1193.69 766.283 1195.01C768.075 1195.33 768.72 1198.22 770.47 1198.74C774.976 1200.07 780.131 1195.28 784.429 1197.25C789.617 1199.62 787.534 1204.29 790.711 1207.68C794.168 1211.37 795.674 1208.97 799.784 1210.66C804.636 1212.65 808.436 1218.53 813.742 1219.59C816.029 1220.05 818.641 1218.48 820.722 1219.59C822.265 1220.42 833.677 1233.38 833.982 1235.98C834.721 1242.29 826.529 1250.56 824.211 1253.86C822.191 1256.73 815.281 1268.08 811.649 1270.99C809.506 1272.71 783.086 1275.53 779.544 1274.72C774.493 1273.56 769.044 1270.6 764.189 1272.48C757.664 1275.01 757.267 1282.33 748.835 1279.93C741.802 1277.93 741.12 1271.1 737.668 1265.78C735.312 1262.15 726.544 1258.08 725.105 1255.35C714.571 1235.36 737.587 1229.03 745.345 1216.61C750.117 1208.98 745.035 1215.46 748.137 1206.19C750.033 1200.52 749.226 1199.35 750.579 1201.34Z" fill="#f8ba00" fill-rule="nonzero" opacity="1" stroke="#f8ba00" stroke-linecap="round" stroke-linejoin="round" stroke-width="2"/>
<path d="M698.098 1274.48C705.019 1249.8 710.085 1268.59 723.709 1269.38C727.77 1269.62 734.663 1266.05 736.927 1271.29C737.788 1273.29 737.406 1280.72 737.478 1282.13C738.148 1295.33 733.017 1297.32 721.506 1294.25C719.229 1293.64 718.606 1289.79 716.549 1288.51C712.642 1286.07 705.05 1290.47 701.678 1287.87C701.667 1287.86 697.503 1276.61 698.098 1274.48Z" fill="#f8ba00" fill-rule="nonzero" opacity="1" stroke="#f8ba00" stroke-linecap="round" stroke-linejoin="round" stroke-width="2"/>
<path d="M829.511 1219.85C827.672 1215.2 832.949 1210.42 835.445 1206.05C847.601 1184.73 870.208 1203.94 884.608 1195C891.552 1190.7 894.243 1179.33 903.256 1177.65C911.417 1176.13 926.696 1174.46 929.533 1183.96C934.38 1200.2 922.785 1203.26 917.666 1215.51C913.846 1224.65 916.501 1232.79 909.19 1241.54C903.783 1248.01 867.852 1253.38 858.331 1250.21C848.539 1246.96 856.408 1241.03 852.398 1235.23C847.31 1227.86 832.787 1228.13 829.511 1219.85Z" fill="#f8ba00" fill-rule="nonzero" opacity="1" stroke="#f8ba00" stroke-linecap="round" stroke-linejoin="round" stroke-width="2"/>
<path d="M823.207 1202.25C820.948 1204.24 819.113 1207.77 816.002 1207.77C807.591 1207.77 789.884 1192.62 786.334 1185.69C778.394 1170.17 784.175 1154.56 799.049 1144.68C805.137 1140.63 811.312 1134.3 818.545 1132.06C825.993 1129.75 824.284 1133.81 831.259 1127.32C832.87 1125.82 832.957 1123.22 834.65 1121.8C837.309 1119.58 843.81 1120.41 846.517 1119.44C848.205 1118.83 848.952 1116.14 850.755 1116.28C856.97 1116.76 860.076 1126.63 862.622 1130.48C867.027 1137.14 869.012 1148.5 866.86 1156.51C865.938 1159.94 860.804 1161.17 859.231 1164.39C855.625 1171.77 858.957 1181.58 852.45 1188.84C846.675 1195.29 838.479 1189.93 832.107 1193.57C828.448 1195.67 826.326 1199.5 823.207 1202.25Z" fill="#f8ba00" fill-rule="nonzero" opacity="1" stroke="#f8ba00" stroke-linecap="round" stroke-linejoin="round" stroke-width="2"/>
<path d="M781.224 1141.44C770.534 1127.16 793.927 1105.96 807.501 1093.33C812.654 1088.54 819.28 1085.52 824.453 1080.71C828.376 1077.06 828.833 1069.75 834.625 1068.09C836.785 1067.47 839.275 1068.79 841.406 1068.09C853.534 1064.11 878.102 1039.87 888.874 1057.05C892.383 1062.65 894.274 1061.72 892.265 1069.67C888.741 1083.6 865.006 1091.45 853.273 1096.49C837.532 1103.25 829.165 1117.42 814.282 1124.88C802.115 1130.97 789.518 1152.52 781.224 1141.44Z" fill="#f8ba00" fill-rule="nonzero" opacity="1" stroke="#f8ba00" stroke-linecap="round" stroke-linejoin="round" stroke-width="2"/>
<path d="M742.613 1193.82C752.172 1187.09 763.66 1190.87 768.998 1185.66C771.939 1182.79 777.26 1172.97 777.006 1169.05C776.78 1165.54 767.15 1158.27 763.467 1159.65C761.633 1160.34 762.167 1163.13 761.517 1164.87C759.026 1171.53 757.197 1174.2 751.665 1179.21L742.613 1193.82Z" fill="#f8ba00" fill-rule="nonzero" opacity="1" stroke="#f8ba00" stroke-linecap="round" stroke-linejoin="round" stroke-width="2"/>
<path d="M975.337 1269.61C970.859 1268.18 962.34 1267.49 959.059 1264.36C950.388 1256.09 963.681 1242.58 967.808 1236.26C970.395 1232.3 968.921 1227.91 971.724 1223.96C974.892 1219.5 987.111 1203.47 994.499 1206.02C999.589 1207.78 1001.58 1219.99 1000.77 1224.03C1000.02 1227.75 997.045 1228.36 995.263 1231.49C989.013 1242.47 988.963 1253.83 975.916 1260.81L975.337 1269.61Z" fill="#f8ba00" fill-rule="nonzero" opacity="1" stroke="#f8ba00" stroke-linecap="round" stroke-linejoin="round" stroke-width="2"/>
<path d="M933.696 1356.08C932.72 1356.84 928.571 1359.93 926.927 1358.4C925.238 1356.83 922.745 1343.31 924.077 1340.83C925.627 1337.95 936.265 1328.9 939.753 1333.54C943.554 1338.59 942.646 1348.35 940.466 1353.76L933.696 1356.08Z" fill="#f8ba00" fill-rule="nonzero" opacity="1" stroke="none"/>
<path d="M942.761 1321.94C941.379 1323.49 938.915 1322.36 936.829 1322.54C936.105 1322.61 932.925 1323.44 932.32 1322.88C931.203 1321.84 931.774 1315.55 931.964 1314.04C932.2 1312.18 934.359 1311.23 934.812 1309.41C934.99 1308.69 934.483 1307.53 934.812 1306.87C935.609 1305.28 938.795 1305.21 938.964 1303C939.142 1300.69 938.376 1297.69 939.083 1295.39C939.43 1294.26 940.693 1294.41 941.219 1293.51C942.345 1291.59 942.001 1289.41 944.185 1287.55C950.913 1281.81 953.933 1291.94 953.676 1296.71C953.49 1300.19 951.291 1302.07 950.236 1305.21C949.456 1307.54 950.341 1310.43 949.287 1312.72C947.643 1316.29 945.387 1318.98 942.761 1321.94Z" fill="#f8ba00" fill-rule="nonzero" opacity="1" stroke="none"/>
<path d="M932.557 1224.84C927.586 1220.6 939.113 1212.53 940.78 1207.88C941.65 1205.45 940.316 1202.55 941.316 1200.22C942.438 1197.61 946.04 1195.59 946.5 1192.74C947.027 1189.47 945.861 1186 946.857 1182.76C948.599 1177.09 958.849 1173.54 964.018 1175.94C970.272 1178.85 973.99 1182.24 974.386 1189.25C974.481 1190.92 973.162 1193.22 973.671 1194.74C974.147 1196.15 975.872 1195.78 976.352 1197.23C979.712 1207.39 974.023 1214.87 966.699 1221.68C965.671 1222.64 964.17 1221.94 962.945 1222.35C958.496 1223.82 954.459 1227.2 949.896 1228.33C946.753 1229.11 940.895 1228.42 937.741 1228C935.526 1227.71 934.542 1226.53 932.557 1224.84Z" fill="#f8ba00" fill-rule="nonzero" opacity="1" stroke="none"/>
<path d="M879.377 1176.19C874.463 1178.07 872.377 1169.37 873.031 1166.13C874.806 1157.32 886.966 1146.12 896.627 1145.67C898.413 1145.59 901.73 1143.23 903.42 1144.34C906.625 1146.44 907.135 1151.94 907.71 1155.15C908.243 1158.13 911.136 1159.22 910.749 1162.47C909.818 1170.26 898.558 1168.96 893.409 1171.78C891.359 1172.9 889.822 1174.99 887.51 1175.61C884.853 1176.31 881.965 1175.2 879.377 1176.19Z" fill="#f8ba00" fill-rule="nonzero" opacity="1" stroke="none"/>
<path d="M944.98 1169.54C942.992 1172.12 934.09 1171.89 931.663 1169.29C930.122 1167.63 929.537 1165.64 927.373 1164.3C923.116 1161.66 916.092 1157.12 921.295 1150.83C924.704 1146.7 928.665 1144.11 933.987 1142.34C935.615 1141.8 937.671 1142.51 939.171 1141.84C940.109 1141.43 942.488 1137.37 942.746 1137.35C943.941 1137.26 944.779 1138.68 945.964 1138.85C948.841 1139.27 949.641 1136.19 949.896 1136.36C950.676 1136.85 952.836 1142.66 954.544 1142.34C956.359 1142.01 954.51 1141.43 958.298 1142.18C962.739 1143.05 983.154 1133.84 978.497 1146.83C977.611 1149.31 974.052 1150.79 972.598 1152.99C971.943 1153.98 972.316 1155.43 971.704 1156.31C968.545 1160.89 960.884 1162.68 955.974 1164.96C953.515 1166.11 946.492 1167.57 944.98 1169.54Z" fill="#f8ba00" fill-rule="nonzero" opacity="1" stroke="none"/>
<path d="M978.14 1175.44C973.37 1171.84 977.949 1164.61 980.821 1161.14C983.768 1157.57 987.12 1154.52 989.223 1150.33C990.711 1147.36 991.513 1144.23 993.334 1141.34C994.624 1139.3 996.971 1138.24 998.16 1136.02C998.641 1135.13 998.473 1133.9 999.233 1133.19C1000.1 1132.39 1001.73 1132.91 1002.81 1132.36C1006.02 1130.72 1004.41 1129.17 1008.89 1128.87C1012.16 1128.65 1017.59 1125 1020.68 1127.87C1023.29 1130.29 1026.86 1139.43 1023.36 1142.18C1020.41 1144.51 1016.29 1145.66 1013.18 1147.83C1009.01 1150.74 1006.16 1155 1002.09 1157.98C998.224 1160.81 993.812 1162.36 991.189 1166.63C989.215 1169.84 992.001 1178.87 988.686 1180.76C983.448 1183.76 981.531 1178 978.14 1175.44Z" fill="#f8ba00" fill-rule="nonzero" opacity="1" stroke="none"/>
<path d="M917.252 1124.72C907.618 1128.89 892.134 1137.22 881.12 1131.07C878.121 1129.39 880.291 1120.68 881.889 1118.37C883.118 1116.59 886.595 1116.96 888.423 1114.97C891.981 1111.11 893.112 1105.22 896.687 1101.56C899.163 1099.03 902.845 1097.72 905.72 1095.66C906.061 1095.42 907.389 1093.9 908.027 1093.87C910.437 1093.75 912.653 1096.55 915.138 1095.66C917.12 1094.95 915.576 1094.73 917.06 1093.69C918.448 1092.72 927.65 1090.99 929.36 1092.08C934.444 1095.34 934.786 1109.84 932.051 1114.08C929.287 1118.37 922.165 1122.59 917.252 1124.72Z" fill="#f8ba00" fill-rule="nonzero" opacity="1" stroke="none"/>
<path d="M976.928 1126.6C968.168 1118.88 953.121 1129.72 944.351 1117.48C942.187 1114.46 953.276 1101.48 956.459 1099.06C957.921 1097.94 958.155 1096.25 959.342 1094.94C961.752 1092.29 959.177 1095.38 961.841 1094.05C963.513 1093.21 966.181 1088.65 967.222 1087.08C967.66 1086.41 966.823 1085.3 967.414 1084.75C967.553 1084.62 971.011 1083.71 971.066 1083.68C972.183 1082.99 972.169 1080.85 973.18 1080.28C976.792 1078.26 982.245 1077.56 986.249 1075.81C987.368 1075.32 989.868 1072.68 991.246 1073.13C993.442 1073.85 995.283 1074.12 997.396 1074.74C1000.09 1075.53 999.656 1078.2 1001.82 1079.21C1002.79 1079.66 1004.2 1078.79 1005.08 1079.39C1009.57 1082.43 1020.69 1100.16 1016.42 1105.32C1015.76 1106.11 1012.8 1106.74 1011.81 1107.46C1005.84 1111.83 1003.96 1118.1 996.435 1120.16C990.327 1121.83 984.058 1123.77 978.369 1126.42C977.073 1127.02 977.589 1127.18 976.928 1126.6Z" fill="#f8ba00" fill-rule="nonzero" opacity="1" stroke="none"/>
<path d="M944.538 1066.43C939.759 1066.43 928.736 1071.17 926.224 1068.62C918.134 1060.41 925.719 1045.56 928.572 1037.6C930.555 1032.06 929.119 1027.03 932.329 1021.87C937.282 1013.91 946.622 1005.72 955.808 1002.2C959.142 1000.93 963.371 1000.77 966.609 999.145C973.256 995.815 974.439 993.864 982.575 993.465C986.376 993.279 991.584 988.351 994.784 989.096C1004.92 991.454 998.823 1007.62 1005.12 1012.69C1008.06 1015.06 1012.21 1013.38 1012.63 1018.81C1012.74 1020.23 1002.88 1023.92 1009.81 1029.73C1013.57 1032.88 1028.78 1036.91 1033.76 1033.66C1034.47 1033.2 1047.76 1025 1046.44 1032.35C1045.15 1039.54 1023.58 1045.63 1017.79 1048.08C1014.52 1049.47 1012.25 1052.71 1008.87 1054.2C994.107 1060.71 973.787 1062.31 957.687 1067.31C946.505 1070.78 937.705 1076.44 930.92 1063.81" fill="#f8ba00" fill-rule="nonzero" opacity="1" stroke="none"/>
<path d="M879.97 1022.74C875.958 1018.93 893.775 1012.3 898.049 1008.32C902.262 1004.4 906.883 1001.56 911.197 997.835C913.314 996.006 927.668 985.334 930.451 987.348C931.971 988.448 932.651 1009.75 931.859 1012.69C929.579 1021.18 922.48 1023.84 918.241 1030.6C915.275 1035.34 912.246 1044.26 904.623 1043.71C888.717 1042.57 888.46 1030.79 879.97 1022.74Z" fill="#f8ba00" fill-rule="nonzero" opacity="1" stroke="none"/>
<path d="M850.641 1051.08C855.838 1054.62 868.738 1045 873.909 1041.67C875.61 1040.57 880.11 1039.73 879.607 1037.07C878.861 1033.14 865.475 1027.2 862.417 1032.04C860.842 1034.53 862.767 1037.7 860.613 1040.26C859.449 1041.63 857.531 1042.24 856.244 1043.52C853.778 1045.98 847.838 1049.17 850.641 1051.08Z" fill="#f8ba00" fill-rule="nonzero" opacity="1" stroke="none"/>
<path d="M903.909 1074.87C903.424 1070.63 906.918 1066.92 911.06 1068.57C915.745 1070.43 919.273 1076.64 917.222 1081.23C916.325 1083.23 901.554 1086.63 900.731 1084.09C900.218 1082.51 901.821 1080.03 902.417 1078.64C902.873 1077.57 904.037 1076 903.909 1074.87Z" fill="#f8ba00" fill-rule="nonzero" opacity="1" stroke="none"/>
<path d="M1057.97 1075.55C1053.04 1074.05 1050.91 1068.1 1049.34 1063.5C1048.06 1059.75 1060.29 1052.62 1063.73 1048.51C1080.52 1028.42 1097.28 1015.12 1127.04 1020.66C1128.53 1020.94 1132.9 1024.84 1133.94 1025.48C1135.96 1026.73 1138.95 1026.21 1140.85 1027.62C1147.79 1032.79 1152.53 1047.6 1148.91 1055.47C1147.03 1059.55 1142.77 1062.78 1140.85 1066.72C1139.74 1069 1141.82 1072.16 1140.27 1074.21C1138.01 1077.23 1127.01 1073.37 1123.58 1073.68C1112.7 1074.64 1100.31 1073.02 1089.63 1074.75C1081 1076.14 1077.23 1087.94 1076.39 1088.14C1073.83 1088.73 1064.16 1077.43 1057.97 1075.55Z" fill="#f8ba00" fill-rule="nonzero" opacity="1" stroke="none"/>
<path d="M1025 1111.2C1026.85 1114.47 1031.9 1110.93 1035.4 1110.28C1042.79 1108.91 1055.94 1105.39 1053.74 1095.66C1053.41 1094.23 1052.1 1093.21 1051.61 1091.85C1050.64 1089.15 1050.34 1086.18 1048.5 1083.77C1046.41 1081.05 1032.43 1077.02 1030.98 1082.86C1030.35 1085.39 1032.78 1090.32 1032.78 1090.32C1032.28 1091.1 1030.62 1091.68 1030 1092.46C1027.89 1095.08 1026.23 1100.67 1025.74 1103.88C1025.34 1106.48 1023.64 1108.78 1025 1111.2Z" fill="#f8ba00" fill-rule="nonzero" opacity="1" stroke="none"/>
<path d="M1016 1071.81C1008.72 1058.92 1032.29 1056.19 1034.74 1062.6C1036.77 1067.87 1034.9 1078.2 1027.38 1079.2C1023.98 1079.66 1019.14 1077.96 1016.08 1077.07C1013.7 1076.38 1016.85 1073.32 1016 1071.81Z" fill="#f8ba00" fill-rule="nonzero" opacity="1" stroke="none"/>
<path d="M1029.13 994.235C1025.95 990.989 1042.67 982.44 1047.03 979.856C1053.79 975.855 1059.14 970.058 1065.62 965.841C1067.73 964.465 1070.33 964.254 1072.46 962.928C1074.15 961.885 1074.93 960.045 1076.57 959.106C1078.54 957.978 1080.92 959.282 1082.83 958.196C1084.68 957.145 1085.43 954.759 1087.53 954.01C1090.24 953.038 1092.96 954.901 1095.74 954.556C1097.59 954.327 1098.46 952.29 1100.44 952.554C1101.72 952.725 1102.14 955.871 1102.78 956.74C1106.38 961.566 1106.44 967.076 1104.94 972.939C1104.1 976.218 1101.49 979.125 1100.83 982.222C1099.7 987.483 1105.19 987.345 1105.52 990.959C1106.27 998.95 1095.95 1011.83 1089.09 1015.89C1085.88 1017.79 1079.17 1019.89 1075.4 1020.45C1071.53 1021.01 1067.32 1019.24 1063.47 1020.26C1061.78 1020.71 1060.91 1022.21 1058.97 1022.45C1056.73 1022.72 1047.08 1019.7 1045.27 1017.9C1039.03 1011.67 1035.26 1000.47 1029.13 994.235Z" fill="#f8ba00" fill-rule="nonzero" opacity="1" stroke="none"/>
<path d="M947.679 978.876C944.776 985.232 961.284 983.565 966.741 985.152C971.064 986.408 977.176 986.434 981.6 984.788C982.871 984.315 983.516 983.008 984.923 982.605C986.942 982.027 989.137 982.748 991.179 982.241C992.831 981.831 993.283 980.535 994.698 979.876C997.808 978.429 1005.31 977.188 1008.77 976.42C1010.77 975.978 1011.55 974.184 1013.08 973.145C1016.79 970.611 1021.5 968.33 1025 966.233C1028.05 964.407 1024.78 958.525 1023.24 956.774C1021.27 954.532 1018.61 953.193 1016.59 951.134C1011.94 946.374 1014.45 943.991 1005.45 945.313C1003.24 945.639 997.883 945.689 996.458 947.678C994.187 950.847 997.293 953.954 993.33 956.774C987.356 961.024 980.028 960.219 973.388 962.595C967.056 964.861 957.846 968.286 952.665 972.418C950.11 974.455 949.014 975.954 947.679 978.876Z" fill="#f8ba00" fill-rule="nonzero" opacity="1" stroke="none"/>
<path d="M956.77 954.318C955.899 952.955 963.516 950.075 964.786 949.315C966.587 948.238 967.802 948.374 969.674 947.678C974.777 945.779 978.106 940.038 984.337 943.13C985.934 943.923 987.428 943.817 988.442 945.495C988.955 946.343 990.646 951.443 990.202 952.408C989.501 953.928 985.715 954.822 984.337 955.864C981.023 958.369 978.884 957.427 974.952 958.775C969.267 960.723 964.157 964.278 957.552 963.868C955.879 963.764 955.155 962.526 953.447 962.413C951.149 962.26 949.387 966.569 947.386 965.505C944.344 963.888 953.228 956.977 954.033 956.228C954.379 955.906 957.399 955.3 956.77 954.318Z" fill="#f8ba00" fill-rule="nonzero" opacity="1" stroke="none"/>
<path d="M1097.27 1095.55C1063.94 1105.2 1033.43 1123.53 1013.7 1151.95C928.706 1274.39 905.608 1357.26 919.136 1365.72C923.75 1368.6 967.991 1254.12 1002.37 1191.57C1025.48 1149.52 1065.86 1116.7 1097.27 1095.55Z" fill="#ffff72" fill-rule="nonzero" opacity="0.4" stroke="none"/>
<path d="M1046.31 958.775C1042.32 950.808 1037.27 953.754 1033.6 949.315C1031.28 946.499 1031.67 942.192 1029.69 939.128C1027.82 936.23 1023.86 933.249 1024.81 929.305C1026.09 923.94 1034.24 923.898 1038.3 920.755C1043.5 916.718 1051.3 916.026 1057.26 912.751C1059.75 911.383 1061.26 908.856 1064.1 908.021C1066.76 907.239 1069.62 908.17 1072.12 906.748C1073.82 905.782 1074.39 903.977 1076.42 903.474C1078.39 902.984 1080.92 904.353 1082.87 903.656C1083.82 903.316 1083.82 901.595 1084.83 901.473C1085.9 901.343 1094.98 903.317 1095.97 904.383C1098.22 906.806 1109.44 924.228 1106.14 927.304C1103.27 929.966 1097.28 930.644 1094.21 933.307C1092.48 934.81 1091.91 936.722 1090.5 938.401C1088.21 941.113 1084.42 943.523 1081.89 946.041C1080.58 947.353 1080.42 951.513 1078.77 952.226C1067.24 957.174 1052.65 956.966 1040.25 955.318" fill="#f8ba00" fill-rule="nonzero" opacity="1" stroke="none"/>
<path d="M1114.59 1000.11C1116.72 994.345 1122.54 993.639 1128.06 993.639C1132.41 993.639 1137.27 994.231 1141.54 993.436C1147.62 992.304 1153.23 990.155 1159.79 991.819C1162.14 992.414 1163.67 994.12 1165.87 994.852C1170.82 996.497 1175.63 999.212 1174.35 1004.76C1173.17 1009.88 1160.59 1011.88 1155.88 1010.42C1150.49 1008.75 1149 1013.12 1143.49 1011.84C1139.9 1011 1140.22 1005.64 1135.23 1007.19C1133.43 1007.75 1131.4 1009.69 1129.15 1010.22C1121.52 1011.99 1110.75 1010.49 1114.59 1000.11Z" fill="#f8ba00" fill-rule="nonzero" opacity="1" stroke="none"/>
<path d="M1147.4 917.917C1144.69 920.338 1144.25 924.276 1142.41 927.319C1135.12 939.312 1147.51 935.405 1152.84 945.315C1154.32 948.081 1156.53 951.796 1157.62 954.615C1160.87 963.09 1156.15 964.92 1167.18 968.769C1169.56 969.602 1170.28 972.133 1172.18 973.419C1175.25 975.503 1179.77 976.131 1182.61 978.474C1184.36 979.928 1187.93 986.315 1190.65 986.157C1194.47 985.935 1207.8 976.34 1208.47 972.408C1208.77 970.619 1206.79 968.094 1207.38 966.545C1209.11 961.981 1216.89 962.97 1218.46 959.064C1218.8 958.22 1219.56 938.274 1219.55 938.238C1218.09 935.068 1213.23 937.419 1210.86 935.407C1209.4 934.173 1210.21 931.571 1209.33 929.948C1208.23 927.892 1204.67 927.997 1203.03 926.308C1200.07 923.243 1198.99 914.998 1194.78 913.773C1187.99 911.8 1180.4 914.391 1174.35 916.401C1168.29 918.414 1158.8 918.848 1152.4 918.423C1150.63 918.305 1148.74 916.72 1147.4 917.917Z" fill="#f8ba00" fill-rule="nonzero" opacity="1" stroke="none"/>
<path d="M1122.63 972.206C1122.63 967.814 1124.15 963.96 1124.8 959.67C1125.58 954.602 1125.93 949.867 1132.19 949.561C1133.34 949.505 1134.43 948.073 1135.45 948.55C1136.07 948.836 1135.75 949.821 1136.1 950.369C1137.22 952.096 1138.9 951.547 1140.45 952.593C1143.16 954.43 1141.8 957.936 1144.36 959.67C1145.64 960.537 1147.67 959.783 1148.49 961.692C1149.64 964.369 1149.92 967.776 1151.31 970.589C1152.47 972.911 1153.09 975.683 1154.36 977.868C1154.79 978.623 1156.48 978.843 1156.31 979.687C1155.81 982.26 1150.55 982.826 1148.49 982.72C1140.36 982.3 1133.05 982.922 1125.02 982.922C1123.47 982.922 1118.91 984.364 1117.63 983.529C1112.81 980.386 1121.74 970.952 1123.07 967.758" fill="#f8ba00" fill-rule="nonzero" opacity="1" stroke="none"/>
<path d="M1090.75 1113.06C1100.95 1106.51 1114.54 1102.13 1124.56 1102.13C1127.18 1102.13 1134.81 1100.9 1136.77 1102.72C1140.37 1106.07 1138.2 1113.77 1138.64 1117.86C1138.89 1120.15 1141.99 1124.61 1140.21 1126.89C1135.94 1132.35 1128.25 1130.23 1122.05 1130.68C1117.5 1131 1110.81 1131.19 1106.09 1132.13C1102.96 1132.76 1098.36 1136.54 1094.82 1135.05C1092.73 1134.16 1092.71 1130.88 1090.75 1129.51C1089.09 1128.35 1085.25 1128.02 1084.18 1126.31C1081.95 1122.75 1085.06 1116.71 1090.75 1113.06Z" fill="#f8ba00" fill-rule="nonzero" opacity="1" stroke="none"/>
<path d="M1166.33 1074.21C1172.47 1078.23 1210.19 1079.43 1215.01 1084.55C1217.83 1087.55 1218.73 1091.35 1220.95 1094.45C1222.76 1096.98 1225.1 1096.21 1227.21 1098.53C1229.13 1100.64 1227.44 1104.56 1229.4 1106.39C1231.26 1108.12 1232.61 1106.76 1233.79 1109.3C1234.44 1110.73 1233.19 1112.51 1233.79 1113.96C1234.45 1115.57 1240.95 1116.49 1242.24 1115.42C1243.39 1114.47 1244.21 1109.81 1245.37 1108.43C1246.83 1106.7 1249.54 1105.93 1250.06 1103.48C1250.72 1100.43 1250.31 1096.95 1251 1093.87C1252.39 1087.69 1256.83 1080.9 1254.76 1074.35C1252.04 1065.76 1243.64 1061.88 1237.86 1056C1232.22 1050.28 1229.97 1043.51 1220.33 1042.32C1210.13 1041.05 1206.99 1045.7 1199.67 1050.47C1193.67 1054.38 1186.02 1055 1179.95 1058.92C1176.35 1061.23 1177.77 1063.85 1175.57 1066.2C1173.3 1068.6 1163.22 1072.17 1166.33 1074.21Z" fill="#f8ba00" fill-rule="nonzero" opacity="1" stroke="none"/>
<path d="M1249.12 1131.58C1247.56 1118.58 1257.85 1115.71 1265.4 1106.68C1269.02 1102.35 1270.38 1095.41 1274.17 1091.54C1281.71 1083.82 1288.28 1075.65 1296.7 1068.53C1305.7 1060.92 1308.66 1060.79 1316.11 1069.11C1317.64 1070.82 1320.71 1072.75 1321.43 1074.94C1321.49 1075.1 1321.5 1078.44 1321.12 1078.72C1319.94 1079.58 1317.97 1078.8 1316.74 1079.6C1311.4 1083.03 1304.88 1089.22 1301.09 1094.16C1294.44 1102.82 1286 1110.57 1278.86 1119.21C1276.59 1121.95 1276.86 1125.15 1275.11 1127.94C1271.99 1132.92 1266.5 1134.72 1261.65 1137.85C1259.9 1138.97 1257.47 1140.13 1256.95 1142.22C1256.87 1142.54 1257.25 1145.71 1256.32 1146C1251.45 1147.51 1249.36 1133.57 1249.12 1131.58Z" fill="#f8ba00" fill-rule="nonzero" opacity="1" stroke="none"/>
<path d="M1261.96 1042.9C1264.18 1039.19 1268.05 1036.81 1272.29 1035.03C1282.45 1030.78 1283.54 1038.59 1290.76 1025.71C1293.92 1020.07 1296.03 1021.47 1301.09 1018.72C1303.94 1017.17 1304.91 1013.6 1307.03 1011.44C1309.26 1009.18 1312.03 1009.15 1314.23 1006.78C1316.72 1004.12 1320.19 997.578 1324.56 997.171C1326.93 996.95 1328.9 998.854 1330.51 1000.08C1341.66 1008.57 1341.15 1020.14 1342.4 1032.41C1342.47 1033.02 1343.31 1033.6 1343.03 1034.16C1342.99 1034.24 1328.7 1045.16 1327.69 1045.81C1324.95 1047.58 1322.88 1046.17 1320.18 1047.27C1316.18 1048.9 1313.44 1052.25 1308.91 1053.09C1303.57 1054.09 1298.83 1053.7 1293.57 1055.71C1290.33 1056.96 1288.92 1059.92 1286.06 1061.25C1283.39 1062.49 1278.61 1061.39 1275.73 1061.54C1274.11 1061.62 1270.64 1063.38 1269.16 1062.41C1268.38 1061.91 1267.64 1059.23 1266.03 1059.5C1264.6 1059.74 1265.27 1062.77 1263.84 1062.99C1258.32 1063.85 1261.07 1044.37 1261.96 1042.9Z" fill="#f8ba00" fill-rule="nonzero" opacity="1" stroke="none"/>
<path d="M1182.61 1034.6C1180.65 1031.33 1178.75 1025.46 1179.63 1021.64C1180.35 1018.51 1186.52 1016.39 1188.4 1013.48C1195.3 1002.78 1201.19 993.756 1216.57 992.802C1218.74 992.667 1220.91 991.187 1223.14 991.928C1223.37 992.002 1238.63 1010.08 1240.36 1012.61C1246.76 1021.97 1238.34 1021.3 1231.6 1023.09C1230.24 1023.45 1227.16 1027.22 1226.59 1027.17C1222.78 1026.82 1219.38 1017.63 1210.94 1022.22C1202.29 1026.91 1208.17 1040.66 1194.66 1041.44C1191.94 1041.6 1190.09 1042.16 1187.46 1040.86C1184.58 1039.43 1183.95 1036.83 1182.61 1034.6Z" fill="#f8ba00" fill-rule="nonzero" opacity="1" stroke="none"/>
<path d="M1246.62 1027.61C1250.67 1020.42 1253.24 1009.65 1261.96 1005.91C1264.95 1004.62 1279.57 1012.99 1278.24 1016.1C1277.48 1017.85 1272.24 1018.47 1270.72 1019.89C1266.39 1023.92 1264.47 1028.39 1259.45 1032.12C1255.97 1034.71 1255.32 1045.38 1250.69 1046.1C1246.04 1046.82 1245.35 1029.87 1246.62 1027.61Z" fill="#f8ba00" fill-rule="nonzero" opacity="1" stroke="none"/>
<path d="M1227.84 971.686C1225.49 972.364 1227.4 976.467 1228.47 978.531C1230.96 983.347 1236.26 983.444 1239.42 986.977C1241.25 989.016 1240.71 994.792 1243.49 995.715C1247.64 997.095 1252.75 991.803 1256.32 990.472C1259.23 989.39 1261.8 990.443 1264.78 989.889C1272.94 988.369 1285.9 968.814 1282.93 961.638C1281.86 959.036 1278.34 953.442 1276.04 951.735C1275.37 951.236 1255.82 947.704 1255.07 947.949C1248.98 949.932 1254.56 949.642 1249.75 952.026C1243.87 954.944 1242.77 950.946 1236.29 956.978C1234.42 958.715 1231.27 960.959 1230.34 963.385C1229.05 966.763 1232.11 970.454 1227.84 971.686Z" fill="#f8ba00" fill-rule="nonzero" opacity="1" stroke="none"/>
<path d="M1295.92 987.996C1295.92 982.243 1295.39 966.81 1297.8 961.492C1300.19 956.219 1304.75 951.768 1307.5 946.638C1309.21 943.459 1309.67 937.337 1312.2 934.988C1314.27 933.062 1321.08 934.643 1323.78 934.114C1333.62 932.186 1339.45 931.897 1347.88 937.901C1350.56 939.807 1353.28 943.799 1356.33 944.891C1361.69 946.806 1373.4 943.971 1375.12 952.463C1378.47 969.135 1353.08 972.039 1341 973.725C1336.82 974.308 1329.79 977.958 1326.28 980.132C1321.17 983.306 1299.5 1019.9 1296.86 994.113C1296.67 992.266 1296.36 990.43 1296.23 988.579C1296.03 985.503 1296.23 982.34 1296.23 979.259" fill="#f8ba00" fill-rule="nonzero" opacity="1" stroke="none"/>
<path d="M1243.33 927.707C1244.6 921.66 1251.42 917.271 1257.73 914.6C1262 912.794 1267.21 913.794 1271.51 911.688C1275.54 909.711 1275.91 905.554 1279.02 902.95C1284.08 898.713 1293.6 895.467 1297.17 889.553C1298.92 886.665 1301.73 879.671 1305.62 879.067C1319.62 876.898 1328.46 900.085 1324.09 910.523C1321.73 916.174 1316.84 913.524 1312.82 916.639C1309.21 919.44 1303.34 923.542 1300.3 926.833C1296.8 930.632 1296.72 936.062 1291.23 938.483C1285.35 941.071 1265.97 938.483 1258.36 938.483C1256 938.483 1252.29 939.119 1250.22 937.609C1246.67 935.016 1242.53 931.518 1243.33 927.707Z" fill="#f8ba00" fill-rule="nonzero" opacity="1" stroke="none"/>
<path d="M1057.54 891.163C1056.01 893.536 1061.97 892.328 1064.27 892.328C1071.14 892.328 1078.09 892.01 1084.93 892.328C1086.45 892.399 1087.83 893.216 1089.32 893.493C1092.85 894.151 1102.26 894.114 1105.59 893.493C1106.28 893.366 1106.77 892.62 1107.47 892.62C1108.56 892.62 1109.53 893.317 1110.6 893.493C1112.04 893.73 1113.54 893.287 1114.98 893.493C1118.14 893.944 1123.44 896.565 1125.94 893.202C1129.05 889.022 1132.01 881.415 1130.63 876.309C1130.08 874.248 1128.14 872.441 1127.82 870.193C1127.12 865.299 1128.15 861.006 1126.57 856.213C1126.34 855.524 1126.32 853.117 1125.31 852.718C1123.3 851.915 1120.92 852.48 1118.74 852.718C1115.94 853.024 1113.99 855.14 1111.54 856.213C1108.61 857.496 1105.47 858.845 1102.46 859.999C1097.81 861.783 1093.43 862.524 1088.69 863.785C1085.21 864.71 1079.67 867.636 1077.42 870.193C1076.89 870.799 1076.81 871.726 1076.17 872.232C1075.38 872.849 1074.25 872.928 1073.35 873.397C1071.04 874.607 1068.86 876.534 1067.09 878.348C1063.24 882.29 1060.52 886.549 1057.54 891.163Z" fill="#f8ba00" fill-rule="nonzero" opacity="1" stroke="none"/>
<path d="M1015.13 921.017C1016.26 919.863 1017.88 919.216 1019.2 918.25C1023.49 915.116 1029.53 914.32 1034.22 912.134C1036.15 911.238 1037.28 909.194 1039.23 908.347C1041.43 907.393 1043.58 908.354 1044.87 905.726C1047.04 901.286 1043.37 897.656 1039.23 896.115C1033.78 894.083 1024.65 894.657 1019.83 897.862C1016.93 899.79 1015.47 903.54 1013.25 906.017C1011.1 908.419 1009.4 907.494 1006.99 909.221C1004.19 911.223 997.643 922.244 997.914 925.531C998.089 927.644 998.839 927.164 1000.11 928.735C1001.27 930.176 1001.44 931.548 1002.92 932.813C1005.68 935.161 1011.14 934.459 1013.25 931.648C1015.52 928.627 1012.48 923.713 1015.13 921.017Z" fill="#f8ba00" fill-rule="nonzero" opacity="1" stroke="none"/>
<path d="M1124.37 908.784C1125.01 904.496 1128.3 899.115 1131.89 896.115C1133.87 894.454 1136.54 893.833 1138.77 892.62C1141.21 891.295 1142.65 888.789 1145.03 887.377C1147.84 885.713 1151.05 885.86 1154.11 885.047C1157.35 884.187 1160.52 882.718 1163.81 881.843C1168.19 880.679 1173.31 876.667 1178.21 878.348C1181.11 879.341 1188.01 883.563 1188.86 886.503C1189.49 888.722 1188.72 891.543 1188.54 893.785C1188.42 895.334 1189.54 897.202 1188.54 898.445C1187.93 899.21 1186.66 899.205 1185.73 899.61C1183.8 900.447 1182.22 902.126 1180.09 902.522C1177.19 903.062 1173.99 902.351 1171.01 902.813C1167.04 903.43 1165.68 906.123 1162.88 906.891C1158.35 908.13 1152.73 906.528 1148.16 908.347C1143.55 910.187 1136.39 919.448 1130.95 917.959C1125.89 916.575 1123.72 913.222 1124.37 908.784Z" fill="#f8ba00" fill-rule="nonzero" opacity="1" stroke="none"/>
<path d="M1202.47 856.213C1196.35 853.815 1192.86 859.15 1190.42 863.931C1190.04 864.681 1190.25 865.843 1189.48 866.261C1188.03 867.048 1182.88 865.009 1181.34 864.805C1178.55 864.433 1175.18 864.666 1172.58 863.349C1168.44 861.246 1162.19 853.62 1163.81 849.077C1165.64 843.989 1174.65 840.57 1179.15 838.009C1181.46 836.699 1183.78 835.991 1186.04 834.806C1189.04 833.235 1188.13 832.423 1191.36 831.893C1193.21 831.589 1195.12 832.009 1196.99 831.893C1198.45 831.803 1202.41 830.718 1203.57 831.893C1204.91 833.251 1204.74 835.416 1205.45 837.136C1205.77 837.911 1207.72 840.081 1208.26 840.631C1211.01 843.384 1214.94 845.067 1216.09 849.077C1217.53 854.092 1209.33 855.164 1205.45 856.067C1204.48 856.291 1203.39 856.571 1202.47 856.213Z" fill="#f8ba00" fill-rule="nonzero" opacity="1" stroke="none"/>
<path d="M1205.92 887.377C1206.2 885.639 1209.83 880.061 1211.71 879.076C1214.92 877.394 1217.6 879.442 1220.78 877.037C1223.15 875.246 1223.93 871.464 1227.04 870.339C1228.71 869.736 1230.75 870.459 1232.37 869.756C1234.7 868.742 1235.96 867.034 1238.63 866.844C1239.62 866.772 1242.44 866.841 1243.32 867.135C1248.28 868.784 1252.1 880.456 1250.52 884.61C1249.9 886.238 1241.53 894.398 1239.57 894.804C1235.53 895.638 1231.36 894.63 1227.36 896.26C1224.17 897.556 1223.53 900.606 1219.85 901.212C1215.9 901.859 1206.66 898.125 1205.76 894.221C1205.28 892.122 1205.57 889.487 1205.92 887.377Z" fill="#f8ba00" fill-rule="nonzero" opacity="1" stroke="none"/>
<path d="M1233.16 805.616C1196.73 809.653 1165.42 818.858 1142.31 827.542C1131.38 852.642 1130.48 871.47 1142.92 877.835C1160.64 886.905 1188.39 843.839 1233.16 805.616Z" fill="#b83d00" fill-rule="nonzero" opacity="1" stroke="none"/>
<path d="M1267.99 803.781C1224.13 853.723 1204.59 897.467 1225.45 911.241C1247.76 925.969 1295.38 862.349 1368.16 821.568C1340.8 812.587 1305.49 804.583 1267.99 803.781Z" fill="#b83d00" fill-rule="nonzero" opacity="1" stroke="none"/>
<path d="M1349.17 930.06C1352.27 935.221 1360.4 934.201 1366.06 936.508C1368.16 937.36 1369.6 938.943 1371.55 940.001C1375.57 942.185 1378.37 942.315 1381.95 945.643C1384.75 948.252 1384.26 951.117 1384.26 954.51C1384.26 955.047 1383.95 955.664 1384.26 956.122C1385.82 958.481 1389.37 959.5 1390.9 962.032C1393.34 966.073 1389.33 970.545 1398.12 969.287C1401.37 968.821 1404.97 959.421 1406.2 956.928C1407.3 954.717 1408.29 952.025 1409.67 949.942C1411.41 947.31 1410.98 949.457 1411.98 946.449C1414.16 939.837 1415.84 932.334 1416.89 925.492C1417.36 922.435 1418.25 916.558 1416.6 913.671C1415.79 912.262 1414.17 911.758 1412.84 910.984C1408.23 908.3 1405.02 908.716 1399.85 908.029C1393.72 907.214 1382.93 905.386 1377.04 906.954C1374.38 907.661 1373.4 909.165 1371.26 910.447C1369.73 911.365 1367.53 911.039 1366.06 912.059C1362.62 914.462 1361.7 921.354 1360.87 924.955C1360.66 925.835 1361.26 927.005 1360.58 927.642C1360.12 928.067 1359.44 927.067 1358.85 926.836C1357.63 926.364 1354.66 925.424 1353.36 926.03C1351.56 926.865 1348.19 928.428 1349.17 930.06Z" fill="#f8ba00" fill-rule="nonzero" opacity="1" stroke="none"/>
<path d="M1354.8 1011.47C1351.8 1010.55 1352.75 1005.89 1351.63 1003.14C1350.27 999.799 1346.39 994.589 1347.87 990.781C1348.43 989.35 1349.45 988.112 1350.18 986.751C1350.64 985.907 1351.37 983.657 1352.49 982.989C1355.34 981.305 1357.17 984.108 1360 981.646C1360.8 980.949 1361.18 979.877 1362.02 979.228C1363.87 977.809 1367.66 976.001 1369.82 974.929C1372.08 973.809 1371.88 974.839 1374.44 974.392C1375.3 974.242 1377.37 972.755 1378.48 973.586C1379.32 974.21 1381.46 985.383 1380.79 986.751C1380.54 987.273 1379.66 987.334 1379.35 987.825C1378.37 989.344 1379.88 991.773 1378.77 993.199C1376.84 995.665 1371.48 996.786 1368.95 998.841C1366.98 1000.45 1366.21 1002.89 1364.33 1004.48C1363.28 1005.37 1361.77 1005.65 1360.58 1006.36C1358.35 1007.71 1357.33 1012.24 1354.8 1011.47Z" fill="#f8ba00" fill-rule="nonzero" opacity="1" stroke="none"/>
<path d="M1339.36 910.715C1335.02 909.692 1336.3 904.561 1335.17 900.774C1333.15 894.03 1334.14 882.436 1339.21 876.862C1341.45 874.4 1343.45 875.18 1346.14 873.638C1347.68 872.758 1349.65 870.706 1351.34 870.145C1353.24 869.512 1359.77 869.203 1361.73 869.876C1362.44 870.119 1366.19 872.652 1367.22 873.101C1368.45 873.636 1370.26 872.779 1371.26 873.638C1374.74 876.628 1375.14 882.439 1376.17 886.266C1376.75 888.423 1378.7 891.555 1377.04 893.789C1376.36 894.704 1373.48 896.293 1372.71 897.013C1369.68 899.831 1366.98 902.2 1363.75 904.804C1361.77 906.404 1362.69 906.852 1360.29 907.491C1355.69 908.714 1343.9 911.789 1339.36 910.715Z" fill="#f8ba00" fill-rule="nonzero" opacity="1" stroke="none"/>
<path d="M1332.14 864.637C1332.19 863.02 1331.44 861.454 1330.84 859.935C1330.42 858.882 1329.1 858.102 1329.1 856.98C1329.1 853.944 1340.07 845.131 1342.96 843.546C1344.78 842.55 1346.88 842.052 1348.74 841.128C1350.63 840.189 1350.04 839.381 1352.49 838.71C1356.01 837.746 1360.17 839.103 1363.47 839.785C1367.35 840.587 1370.71 839.239 1374.44 840.859C1377 841.97 1380.85 841.548 1382.52 843.815C1384.2 846.089 1385.67 850.243 1386.57 852.95C1386.79 853.633 1387.81 857.525 1387.43 858.055C1387.18 858.402 1379.58 859.75 1378.19 860.204C1371.49 862.404 1364.7 861.01 1357.69 861.01C1355.44 861.01 1352.55 860.529 1350.47 861.547C1348.46 862.532 1347.02 864.364 1344.99 865.309C1341.7 866.838 1339.31 865.963 1336.03 867.996C1335.61 868.258 1332.33 871.768 1332.28 871.757C1328.92 871.062 1332.09 865.882 1332.14 864.637Z" fill="#f8ba00" fill-rule="nonzero" opacity="1" stroke="none"/>
<path d="M1418.78 888.203C1411.9 885.287 1405.7 890.479 1397.82 891.108C1396.65 891.201 1390.38 892.047 1389.35 891.523C1388.78 891.233 1388.82 886.081 1388.9 884.469C1389.16 879.333 1391.79 875.224 1393.36 870.36C1393.83 868.894 1394.41 865.434 1395.59 864.136C1399.47 859.865 1407.24 854.875 1412.54 852.103C1416.23 850.169 1420.94 849.047 1424.13 846.293C1425.92 844.75 1426.62 842.233 1428.59 840.899C1430.34 839.714 1433.18 840.54 1434.83 839.239C1436.16 838.197 1436.55 836.432 1437.51 835.09C1439.58 832.196 1439.18 832.953 1443.31 832.185C1444.19 832.02 1445.23 831.303 1445.98 831.77C1446.92 832.354 1446.89 833.701 1447.32 834.675C1449.01 838.491 1451.18 841.998 1452.67 845.878C1455.81 854.044 1460.33 872.527 1452.23 879.489C1449.65 881.702 1446.04 883.216 1443.31 885.298C1434.08 892.325 1432.44 893.992 1418.78 888.203Z" fill="#f8ba00" fill-rule="nonzero" opacity="1" stroke="none"/>
<path d="M1487.57 402.682C1485.73 399.383 1487.42 395.522 1488.36 392.051C1489.93 386.206 1495.65 389.532 1498.37 387.973C1500.94 386.502 1499.96 382.996 1503.38 382.731C1505.03 382.603 1507.6 383.993 1508.7 384.478C1515.02 387.263 1513.4 393.824 1513.4 399.332C1513.4 401.538 1513.92 404.073 1512.46 406.031C1510.14 409.144 1504.09 409.412 1500.56 408.943C1496.23 408.368 1489.59 406.288 1487.57 402.682Z" fill="#f8ba00" fill-rule="nonzero" opacity="1" stroke="none"/>
<path d="M1498.04 747.673C1498.02 747.785 1497.99 747.931 1497.97 748.04C1497.94 748.194 1497.99 748.351 1497.97 748.508C1498 748.221 1498.01 747.96 1498.04 747.673Z" fill="#f8ba00" fill-rule="nonzero" opacity="1" stroke="none"/>
<path d="M1428.17 643.65C1427.96 643.699 1427.7 643.689 1427.49 643.75C1427.03 643.884 1427.68 644.645 1427.99 644.985C1428.13 645.134 1428.08 644.612 1428.1 644.418C1428.14 644.164 1428.15 643.905 1428.17 643.65Z" fill="#f8ba00" fill-rule="nonzero" opacity="1" stroke="none"/>
<path d="M1377.57 267.906C1371.63 268.345 1365.78 269.616 1361.17 272.611C1352.88 278 1348.7 288.465 1346.47 297.274C1347.72 299.898 1349.19 302.746 1350.56 305.483C1353.67 304.265 1357.59 303.512 1360.96 304.082C1365.66 304.876 1369.93 307.911 1375.05 306.718C1379.11 305.775 1381.95 299.722 1386.93 303.514C1388.92 305.034 1389.36 307.549 1391.63 309.054C1395.65 311.732 1400.42 312.909 1404.47 315.729C1405.07 316.149 1406.03 316.257 1406.33 316.897C1407.66 319.672 1407.08 324.109 1407.59 327.109C1408.04 329.793 1410.01 331.52 1410.74 334.084C1411.67 337.322 1411.71 341.946 1413.54 344.863C1415.54 348.052 1418.87 349.574 1419.49 353.607C1420.11 357.597 1419.72 362.837 1418.56 366.723C1418.29 367.624 1416.84 369.665 1417.31 370.794C1417.9 372.227 1420.34 372.19 1421.36 373.397C1424.92 377.619 1422.15 384.885 1420.43 389.149C1419.64 391.103 1419.42 393.261 1419.35 395.457C1418.8 397.341 1418.18 399.192 1417.74 401.13C1417.61 401.666 1417.56 402.278 1417.45 402.832C1428.71 415.202 1441.25 427.553 1455.22 439.609C1473.41 455.31 1503.94 425.99 1493.24 403.866C1468.82 353.393 1435.68 316.149 1405.15 289.698C1404.86 289.822 1404.29 290.003 1404.14 290.099C1403.14 290.766 1401.94 292.503 1400.7 293.035C1397.99 294.198 1395.29 293.642 1392.56 295.071C1390.19 296.309 1391.46 296.78 1388.83 297.107C1384.23 297.677 1382.14 295.207 1378.18 293.903C1374.35 292.646 1370.34 292.206 1367.06 289.965C1365.59 288.966 1365.51 286.84 1365.33 285.159C1365.23 284.15 1365.92 283.217 1366.27 282.256C1368.35 276.452 1372.64 277.706 1377.24 274.981C1379 273.937 1380.26 272.344 1381.69 270.976C1380.34 269.98 1378.89 268.855 1377.57 267.906Z" fill="#f8cf00" fill-rule="nonzero" opacity="1" stroke="none"/>
<path d="M1381.69 270.976C1380.26 272.344 1379 273.937 1377.24 274.981C1372.64 277.706 1368.35 276.452 1366.27 282.256C1365.92 283.217 1365.23 284.15 1365.33 285.159C1365.51 286.84 1365.59 288.966 1367.06 289.965C1370.34 292.206 1374.35 292.646 1378.18 293.903C1382.14 295.207 1384.23 297.677 1388.83 297.107C1391.46 296.78 1390.19 296.309 1392.56 295.071C1395.29 293.642 1397.99 294.198 1400.7 293.035C1401.94 292.503 1403.14 290.766 1404.14 290.099C1404.29 290.003 1404.86 289.822 1405.15 289.698C1397.04 282.677 1389.21 276.51 1381.69 270.976Z" fill="#f8ba00" fill-rule="nonzero" opacity="1" stroke="none"/>
<path d="M1383.56 302.28C1380.47 302.426 1378.1 306.011 1375.05 306.718C1369.93 307.911 1365.66 304.876 1360.96 304.082C1357.59 303.512 1353.67 304.265 1350.56 305.483C1364.92 334.128 1386.15 368.466 1417.45 402.832C1417.56 402.278 1417.61 401.666 1417.74 401.13C1418.18 399.192 1418.8 397.341 1419.35 395.457C1419.42 393.261 1419.64 391.103 1420.43 389.149C1422.15 384.885 1424.92 377.619 1421.36 373.397C1420.34 372.19 1417.9 372.227 1417.31 370.794C1416.84 369.665 1418.29 367.624 1418.56 366.723C1419.72 362.837 1420.11 357.597 1419.49 353.607C1418.87 349.574 1415.54 348.052 1413.54 344.863C1411.71 341.946 1411.67 337.322 1410.74 334.084C1410.01 331.52 1408.04 329.793 1407.59 327.109C1407.08 324.109 1407.66 319.672 1406.33 316.897C1406.03 316.257 1405.07 316.149 1404.47 315.729C1400.42 312.909 1395.65 311.732 1391.63 309.054C1389.36 307.549 1388.92 305.034 1386.93 303.514C1385.68 302.566 1384.58 302.231 1383.56 302.28Z" fill="#f8ba00" fill-rule="nonzero" opacity="1" stroke="none"/>
<path d="M1598.54 326.809C1599.78 326.636 1601.07 326.651 1602.31 326.809C1604.77 327.122 1606.94 328.12 1609.48 328.277C1610.52 328.342 1612.79 328.076 1613.89 328.544C1617.11 329.904 1618.65 333.812 1621.07 335.853C1622.03 336.671 1623.58 336.728 1624.51 337.588C1628.61 341.406 1632.52 344.096 1637.67 346.332C1639.33 347.054 1640.29 350.174 1638.93 351.571C1636.3 354.258 1630.13 353.875 1626.7 354.475C1623.29 355.069 1619.4 356.228 1616.08 357.111C1612.13 358.161 1610.75 361.199 1607.62 363.218C1605.78 364.4 1604.01 364.149 1601.98 364.687C1596.65 366.105 1590.97 367.59 1585.38 367.59C1583.6 367.59 1581.62 368.693 1580.07 367.891C1578.28 366.966 1578.81 356.461 1578.81 354.475C1578.81 351.758 1578.63 349.478 1579.6 346.899C1581.6 341.632 1577.87 333.738 1582.9 329.445C1585.49 327.234 1590.42 329.053 1593.52 328.544C1595.28 328.256 1596.78 327.055 1598.54 326.809Z" fill="#f8ba00" fill-rule="nonzero" opacity="1" stroke="none"/>
<path d="M1522.47 334.952C1527.06 334.952 1531.65 334.952 1536.24 334.952C1536.44 334.952 1540.94 334.952 1540.94 334.952C1543.37 335.597 1545.17 338.304 1547.5 339.323C1547.8 339.452 1552.45 340.803 1552.85 341.092C1554.77 342.498 1555.87 344.675 1557.55 346.332C1558.8 347.568 1560.64 348.13 1562.24 348.935C1565.08 350.357 1566.01 355.773 1566.91 358.279C1567.7 360.486 1569.5 365.12 1567.55 367.29C1566.88 368.036 1565.75 368.316 1565.04 369.025C1564.27 369.793 1564.06 371.013 1563.18 371.662C1561.66 372.768 1559.35 372.201 1557.55 372.83C1555.41 373.575 1554.35 375.505 1552.85 376.901C1551.66 378.008 1549.95 378.495 1548.47 379.237C1543.72 381.617 1541.31 387.503 1535.31 388.248C1531.6 388.708 1526.48 388.21 1523.72 385.645C1522.96 384.938 1522.99 383.629 1522.14 383.008C1521.57 382.586 1520.13 383.536 1519.96 382.875C1518.01 375.649 1522.04 367.175 1519.67 360.015C1518.84 357.516 1517.26 355.518 1515.9 353.307C1515.16 352.1 1515.28 350.594 1514.97 349.235C1514.35 346.547 1514.02 347.727 1512.46 345.731C1511.57 344.588 1511.75 342.979 1511.21 341.66C1510.73 340.506 1508.23 340.285 1508.37 339.056C1508.75 335.859 1520.32 334.952 1522.47 334.952Z" fill="#f8ba00" fill-rule="nonzero" opacity="1" stroke="none"/>
<path d="M1438.5 394.122C1440.08 394.331 1441.1 395.709 1442.66 396.124C1446.96 397.265 1460.4 397.814 1461.74 402.832C1462.54 405.798 1458.71 417.299 1455.79 418.851C1453.05 420.309 1452.74 418.697 1449.84 419.418C1444.79 420.67 1449.14 427.597 1439.83 425.559C1438.87 425.348 1437.71 425.33 1437.03 424.658C1436.06 423.689 1435.44 422.34 1435.31 421.02C1434.63 414.252 1434.64 407.596 1435.13 400.796C1435.25 399.097 1434.37 395.297 1436.71 394.389C1437.41 394.119 1437.98 394.052 1438.5 394.122Z" fill="#f8ba00" fill-rule="nonzero" opacity="1" stroke="none"/>
<path d="M1459.13 434.937C1464.5 434.973 1470.27 436.445 1474.91 437.773C1477.14 438.412 1479.46 438.449 1481.47 439.809C1489.36 445.149 1487.35 453.896 1485.85 461.368C1485.53 462.956 1485.78 464.799 1484.91 466.307C1483.52 468.748 1476.77 474.317 1474.26 475.651C1473.62 475.992 1472.81 475.882 1472.07 475.918C1466.96 476.169 1465.6 474.447 1463 470.679C1462.19 469.51 1462.13 467.947 1461.14 466.908C1459.48 465.173 1455.61 466.687 1454.25 465.139C1453.24 463.991 1454.66 459.378 1454.25 457.864C1453.84 456.33 1451.9 455.537 1450.48 454.66C1448.52 453.441 1444.91 449.234 1443.92 447.385C1443.18 446.012 1442.17 444.54 1442.34 443.013C1442.47 441.881 1443.66 441.052 1444.67 440.41C1445.72 439.742 1447.19 439.828 1448.29 439.242C1450.32 438.166 1451.41 435.988 1453.93 435.437C1455.58 435.075 1457.33 434.924 1459.13 434.937Z" fill="#f8ba00" fill-rule="nonzero" opacity="1" stroke="none"/>
<path d="M1481.33 484.161C1482.65 483.965 1483.98 483.972 1485.24 484.362C1490.11 485.872 1489.61 493.506 1489.61 497.177C1489.61 497.856 1489.25 498.659 1489.61 499.246C1490.36 500.438 1492.22 501.082 1492.41 502.45C1494.16 514.634 1479.46 515.179 1471.75 511.027C1465.37 507.589 1463.32 500.662 1463.32 493.706C1463.32 492.541 1462.79 491.256 1463.32 490.202C1464.25 488.373 1468.67 488.465 1469.89 488.166C1473.24 487.344 1477.36 484.75 1481.33 484.161Z" fill="#f8ba00" fill-rule="nonzero" opacity="1" stroke="none"/>
<path d="M1439.08 507.022C1442.07 507.655 1444.27 511.057 1447.47 510.726C1450.07 510.457 1451.66 507.143 1454.5 508.257C1456.08 508.876 1456.75 510.05 1457.8 511.127C1461.94 515.361 1464.13 520.342 1462.43 526.278C1460.43 533.261 1446.47 533.927 1440.83 536.724C1439 537.633 1435.08 540.856 1432.91 538.993C1427.72 534.534 1427.38 525.13 1428.75 519.103C1429.24 516.947 1430.89 514.598 1431.83 512.562L1429.18 516.233C1429.25 515.345 1428.99 514.405 1429.39 513.596C1430.24 511.896 1436.64 506.508 1439.08 507.022Z" fill="#f8ba00" fill-rule="nonzero" opacity="1" stroke="none"/>
<path d="M1460.38 634.806C1461.26 634.771 1462.14 634.8 1462.25 634.806C1464 634.909 1471.72 639.784 1472.43 641.214C1473.88 644.137 1473.25 651.324 1470.28 650.692C1464.8 649.525 1461.02 643.142 1459.41 637.91C1459.14 637.016 1458 636.071 1458.45 635.24C1458.61 634.934 1459.5 634.842 1460.38 634.806Z" fill="#f8ba00" fill-rule="nonzero" opacity="1" stroke="none"/>
<path d="M1468.52 692.475C1473.12 692.148 1472.24 700.576 1475.34 701.686C1476.39 702.061 1477.77 701.105 1478.71 701.686C1479.15 701.956 1479.68 708.472 1479.68 709.094C1479.68 711.364 1479.25 713.488 1479.1 715.736C1479.01 717.265 1479.5 719.226 1479.1 720.708C1478.65 722.401 1476.68 724.046 1475.73 725.514C1474.49 727.437 1474.07 729.94 1472.76 731.788C1471.88 733.021 1466.8 734.964 1465.62 732.355C1464.29 729.413 1465.05 726.013 1464.83 722.944C1464.71 721.328 1463.43 720.559 1463.22 718.873C1462.77 715.332 1463.69 711.712 1463.43 708.16C1463.38 707.383 1462.86 706.71 1462.64 705.957C1461.77 702.917 1461.98 697.886 1464 695.245C1464.6 694.465 1465.28 693.659 1466.19 693.209C1467.1 692.758 1467.87 692.521 1468.52 692.475Z" fill="#f8ba00" fill-rule="nonzero" opacity="1" stroke="none"/>
<path d="M1469.67 746.138C1470.6 745.985 1471.53 745.921 1471.97 746.205C1476.07 748.845 1474.96 757.129 1472.54 760.222C1468.73 765.099 1462.67 763.377 1457.37 764.393C1454.76 764.894 1455.04 759.374 1453.32 757.452C1452.67 756.735 1451.6 756.08 1451.13 755.249C1450.39 753.956 1450.73 752.032 1450.73 750.644C1450.73 750.09 1450.43 749.45 1450.73 748.975C1450.91 748.697 1453.21 748.8 1453.32 748.775C1454.27 748.539 1455.15 748.163 1456.08 747.874C1460.04 746.645 1463.32 746.969 1467.38 746.572C1467.8 746.53 1468.75 746.291 1469.67 746.138Z" fill="#f8ba00" fill-rule="nonzero" opacity="1" stroke="none"/>
<path d="M1549.62 309.755C1539.07 310.011 1528.67 311.315 1518.56 313.426C1519.43 315.515 1521.27 317.383 1522.75 319.166C1525.14 322.034 1533.17 323.058 1536.85 323.238C1538.9 323.338 1540.8 324.292 1542.8 324.706C1547.73 325.725 1555.52 327.142 1560.63 325.874C1563 325.285 1562.9 323.903 1565.33 323.238C1568.47 322.379 1574.24 326.665 1577.85 324.706C1579.22 323.959 1579.19 321.94 1580.36 320.935C1581.19 320.223 1582.16 319.587 1583.19 319.166C1583.87 318.891 1584.8 319.328 1585.38 318.899C1586.69 317.924 1586.68 315.321 1586.53 312.926C1583.09 312.309 1579.78 311.634 1576.09 311.157C1567.28 310.018 1558.4 309.542 1549.62 309.755Z" fill="#f8ba00" fill-rule="nonzero" opacity="1" stroke="none"/>
<path d="M1598.54 326.809C1596.78 327.055 1595.28 328.256 1593.52 328.544C1590.42 329.053 1585.49 327.234 1582.9 329.445C1577.87 333.738 1581.6 341.632 1579.6 346.899C1578.63 349.478 1578.81 351.758 1578.81 354.475C1578.81 356.461 1578.28 366.966 1580.07 367.891C1581.62 368.693 1583.6 367.59 1585.38 367.59C1590.97 367.59 1596.65 366.105 1601.98 364.687C1604.01 364.149 1605.78 364.4 1607.62 363.218C1610.75 361.199 1612.13 358.161 1616.08 357.111C1619.4 356.228 1623.29 355.069 1626.7 354.475C1630.13 353.875 1636.3 354.258 1638.93 351.571C1640.29 350.174 1639.33 347.054 1637.67 346.332C1632.52 344.096 1628.61 341.406 1624.51 337.588C1623.58 336.728 1622.03 336.671 1621.07 335.853C1618.65 333.812 1617.11 329.904 1613.89 328.544C1612.79 328.076 1610.52 328.342 1609.48 328.277C1606.94 328.12 1604.77 327.122 1602.31 326.809C1601.07 326.651 1599.78 326.636 1598.54 326.809Z" fill="#f8ba00" fill-rule="nonzero" opacity="1" stroke="none"/>
<path d="M1475.55 331.18C1474.04 331.23 1472.44 331.512 1470.89 331.681C1456.43 340.292 1443.92 351.254 1434.45 364.386C1435.89 365.885 1437.89 366.757 1440.76 366.422C1443.83 366.065 1450.31 364.894 1452.99 363.786C1454.58 363.129 1455.8 361.866 1457.37 361.183C1460.78 359.7 1464.04 361.008 1467.38 359.147C1468.64 358.44 1469.1 356.644 1470.5 356.21C1471.26 355.972 1474.99 356.556 1475.84 355.943C1476.84 355.218 1475.42 353.134 1476.45 352.439C1477.31 351.857 1478.67 352.338 1479.61 351.872C1480.13 351.613 1482.47 348.376 1482.73 348.067C1483.94 346.603 1485.1 345.221 1487.1 344.563C1488.33 344.16 1492.7 344.774 1491.48 341.66C1490.51 339.176 1487.23 340.608 1485.24 339.323C1482.46 337.537 1482.1 333.674 1479.61 332.048C1478.48 331.312 1477.06 331.131 1475.55 331.18Z" fill="#f8ba00" fill-rule="nonzero" opacity="1" stroke="none"/>
<path d="M1522.47 334.952C1520.32 334.952 1508.75 335.859 1508.37 339.056C1508.23 340.285 1510.73 340.506 1511.21 341.66C1511.75 342.979 1511.57 344.588 1512.46 345.731C1514.02 347.727 1514.35 346.547 1514.97 349.235C1515.28 350.594 1515.16 352.1 1515.9 353.307C1517.26 355.518 1518.84 357.516 1519.67 360.015C1522.04 367.175 1518.01 375.649 1519.96 382.875C1520.13 383.536 1521.57 382.586 1522.14 383.008C1522.99 383.629 1522.96 384.938 1523.72 385.645C1526.48 388.21 1531.6 388.708 1535.31 388.248C1541.31 387.503 1543.72 381.617 1548.47 379.237C1549.95 378.495 1551.66 378.008 1552.85 376.901C1554.35 375.505 1555.41 373.575 1557.55 372.83C1559.35 372.201 1561.66 372.768 1563.18 371.662C1564.06 371.013 1564.27 369.793 1565.04 369.025C1565.75 368.316 1566.88 368.036 1567.55 367.29C1569.5 365.12 1567.7 360.486 1566.91 358.279C1566.01 355.773 1565.08 350.357 1562.24 348.935C1560.64 348.13 1558.8 347.568 1557.55 346.332C1555.87 344.675 1554.77 342.498 1552.85 341.092C1552.45 340.803 1547.8 339.452 1547.5 339.323C1545.17 338.304 1543.37 335.597 1540.94 334.952C1540.94 334.952 1536.44 334.952 1536.24 334.952C1531.65 334.952 1527.06 334.952 1522.47 334.952Z" fill="#f8ba00" fill-rule="nonzero" opacity="1" stroke="none"/>
<path d="M1438.5 394.122C1437.98 394.052 1437.41 394.119 1436.71 394.389C1434.37 395.297 1435.25 399.097 1435.13 400.796C1434.64 407.596 1434.63 414.252 1435.31 421.02C1435.44 422.34 1436.06 423.689 1437.03 424.658C1437.71 425.33 1438.87 425.348 1439.83 425.559C1449.14 427.597 1444.79 420.67 1449.84 419.418C1452.74 418.697 1453.05 420.309 1455.79 418.851C1458.71 417.299 1462.54 405.798 1461.74 402.832C1460.4 397.814 1446.96 397.265 1442.66 396.124C1441.1 395.709 1440.08 394.331 1438.5 394.122Z" fill="#f8ba00" fill-rule="nonzero" opacity="1" stroke="none"/>
<path d="M1419.35 395.457C1418.8 397.341 1418.18 399.192 1417.74 401.13C1417.09 403.971 1416.65 407.098 1416.16 410.141C1416.86 410.163 1417.56 410.095 1418.24 409.807C1420.31 408.929 1419.49 405.829 1419.49 404.267C1419.49 401.461 1419.25 398.433 1419.35 395.457Z" fill="#f8ba00" fill-rule="nonzero" opacity="1" stroke="none"/>
<path d="M1530.11 403.533C1527.77 403.322 1526.3 403.937 1524.05 406.036C1523.42 406.618 1522.98 407.499 1522.14 407.771C1520.17 408.416 1517.54 407.153 1515.9 408.372C1514.25 409.6 1513.9 411.87 1512.46 413.311C1509.49 416.291 1503.88 419.856 1501.81 423.49C1500.28 426.169 1500.88 429.626 1500.88 432.534C1500.88 444.131 1502.59 451.439 1512.6 459.466C1514.08 460.644 1520.21 460.992 1524.3 460.7C1517.53 472.751 1512.52 484.789 1508.84 496.943C1512.53 484.79 1517.56 472.753 1524.33 460.7C1530.37 449.957 1537.78 439.172 1546.86 428.262C1547.13 424.687 1547.18 420.919 1546.57 418.25C1545.6 414.05 1541.44 412.513 1538.75 409.807C1537.2 408.244 1537.19 405.944 1535.31 404.567C1534.63 404.073 1533.63 404.183 1532.8 404C1531.76 403.773 1530.89 403.603 1530.11 403.533Z" fill="#f8ba00" fill-rule="nonzero" opacity="1" stroke="none"/>
<path d="M1420.1 413.011C1419.29 412.957 1418.96 414.12 1418.24 414.479C1417.57 414.814 1416.78 414.836 1416.05 415.046C1415.87 415.098 1415.51 415.134 1415.3 415.18C1414.01 425.243 1413.49 436.408 1413.79 448.987C1418.07 448.568 1421.9 446.186 1426.06 445.049C1427.74 444.588 1431.03 445.133 1432.33 443.614C1433.55 442.205 1432.94 439.108 1432.94 437.473C1432.94 435.065 1433.4 431.713 1432.94 429.33C1432.42 426.565 1428.41 424.438 1428.25 421.454C1427.9 415.26 1427.92 417.744 1422.61 414.779C1421.72 414.28 1421.14 413.08 1420.1 413.011Z" fill="#f8ba00" fill-rule="nonzero" opacity="1" stroke="none"/>
<path d="M1459.13 434.937C1457.33 434.924 1455.58 435.075 1453.93 435.437C1451.41 435.988 1450.32 438.166 1448.29 439.242C1447.19 439.828 1445.72 439.742 1444.67 440.41C1443.66 441.052 1442.47 441.881 1442.34 443.013C1442.17 444.54 1443.18 446.012 1443.92 447.385C1444.91 449.234 1448.52 453.441 1450.48 454.66C1451.9 455.537 1453.84 456.33 1454.25 457.864C1454.66 459.378 1453.24 463.991 1454.25 465.139C1455.61 466.687 1459.48 465.173 1461.14 466.908C1462.13 467.947 1462.19 469.51 1463 470.679C1465.6 474.447 1466.96 476.169 1472.07 475.918C1472.81 475.882 1473.62 475.992 1474.26 475.651C1476.77 474.317 1483.52 468.748 1484.91 466.307C1485.78 464.799 1485.53 462.956 1485.85 461.368C1487.35 453.896 1489.36 445.149 1481.47 439.809C1479.46 438.449 1477.14 438.412 1474.91 437.773C1470.27 436.445 1464.5 434.973 1459.13 434.937Z" fill="#f8ba00" fill-rule="nonzero" opacity="1" stroke="none"/>
<path d="M1418.18 456.358C1416.66 456.41 1415.27 456.725 1414.26 457.394C1414.91 470.874 1416.4 485.933 1418.71 502.774C1418.88 502.656 1418.99 502.556 1419.17 502.437C1421.79 500.697 1424.68 499.319 1426.98 497.182C1429.29 495.027 1432.11 492.671 1433.59 489.908C1434.91 487.46 1434.81 484.554 1436.06 482.064C1437.52 479.158 1438.92 476.39 1438.28 473.004C1437.54 469.11 1433.42 463.802 1430.74 460.811C1428.64 458.459 1422.73 456.205 1418.18 456.358Z" fill="#f8ba00" fill-rule="nonzero" opacity="1" stroke="none"/>
<path d="M1481.33 484.161C1477.36 484.75 1473.24 487.344 1469.89 488.166C1468.67 488.465 1464.25 488.373 1463.32 490.202C1462.79 491.256 1463.32 492.541 1463.32 493.706C1463.32 500.662 1465.37 507.589 1471.75 511.027C1479.46 515.179 1494.16 514.634 1492.41 502.45C1492.22 501.082 1490.36 500.438 1489.61 499.246C1489.25 498.659 1489.61 497.856 1489.61 497.177C1489.61 493.506 1490.11 485.872 1485.24 484.362C1483.98 483.972 1482.65 483.965 1481.33 484.161Z" fill="#f8ba00" fill-rule="nonzero" opacity="1" stroke="none"/>
<path d="M1439.08 507.022C1436.64 506.508 1430.24 511.896 1429.39 513.596C1428.99 514.405 1429.25 515.345 1429.18 516.233L1431.83 512.562C1430.89 514.598 1429.24 516.947 1428.75 519.103C1427.38 525.13 1427.72 534.534 1432.91 538.993C1435.08 540.856 1439 537.633 1440.83 536.724C1446.47 533.927 1460.43 533.261 1462.43 526.278C1464.13 520.342 1461.94 515.361 1457.8 511.127C1456.75 510.05 1456.08 508.876 1454.5 508.257C1451.66 507.143 1450.07 510.457 1447.47 510.726C1444.27 511.057 1442.07 507.655 1439.08 507.022Z" fill="#f8ba00" fill-rule="nonzero" opacity="1" stroke="none"/>
<path d="M1484.56 527.78C1482.71 527.804 1480.78 528.146 1478.71 528.914C1474.54 530.465 1472.73 534.712 1471.39 538.225C1470.18 541.413 1468.58 544.851 1467.59 548.07C1465.83 553.805 1468.67 559.63 1468.67 565.224C1468.67 568.998 1468.97 572.404 1469.49 576.07C1469.68 577.394 1469.1 578.649 1470.03 579.841C1472.41 582.881 1484.04 585.137 1487.89 584.113C1488.52 583.947 1488.91 583.268 1489.54 583.112C1491.07 582.732 1492.24 583.622 1493.59 582.611C1495.83 580.944 1494.16 578.22 1494.67 576.07C1495.18 573.937 1496.89 573.118 1497.93 571.532C1498.98 569.958 1498.72 568.455 1499.01 566.726C1499.06 566.446 1499.1 566.2 1499.15 565.925C1499.35 554.998 1500.07 544.347 1501.31 533.887C1500.92 533.491 1500.54 533.08 1499.98 532.819C1494.87 530.456 1490.1 527.707 1484.56 527.78Z" fill="#f8ba00" fill-rule="nonzero" opacity="1" stroke="none"/>
<path d="M1425.63 545.901C1427.15 554.269 1428.73 562.842 1430.54 571.965C1431.1 574.79 1431.52 577.945 1431.94 581.143C1436.18 580.869 1440.85 581.35 1444.56 581.844C1449.47 582.496 1448.09 588.695 1455.4 586.883C1456.14 586.698 1456.93 586.58 1457.55 586.149C1461.21 583.594 1461.64 574.546 1461.64 570.764C1461.64 562.977 1461.16 558.119 1456.22 551.608C1455.66 550.874 1454.44 549.513 1453.5 549.072C1450.35 547.61 1443.53 545.084 1439.94 546.068C1439.05 546.312 1438.39 547.045 1437.5 547.303C1436.62 547.557 1430.79 546.768 1429.39 546.569C1428.44 546.433 1427.01 546.046 1425.63 545.901Z" fill="#f8ba00" fill-rule="nonzero" opacity="1" stroke="none"/>
<path d="M1484.63 591.121C1484.04 591.112 1483.51 591.191 1483.09 591.388C1482.53 591.645 1482.23 592.297 1481.65 592.49C1480.42 592.897 1478.81 592.534 1477.89 593.391C1477.06 594.158 1477.1 595.498 1476.24 596.227C1474.26 597.897 1471.82 595.984 1469.81 597.996C1468.99 598.821 1468 601.559 1467.45 602.401C1466.77 603.43 1465.28 603.752 1464.36 604.604C1463.81 605.118 1463.55 606.83 1463.18 607.474C1461.71 610.032 1459.57 612.252 1458.91 615.183C1457.88 619.745 1459.63 626.435 1463.18 629.734C1464.8 631.245 1466.83 632.373 1468.42 633.939C1469.18 634.695 1470.61 636.905 1471.72 637.476C1474.9 639.124 1482.12 637.958 1485.45 637.243C1490.33 636.195 1496.42 636.966 1500.62 634.673C1500.32 626.395 1500.06 618.109 1499.76 610.211C1498.16 608.402 1495.79 607.474 1494.2 605.071C1491.64 601.199 1494.96 595.146 1489.72 592.49C1488.64 591.94 1486.39 591.148 1484.63 591.121Z" fill="#f8ba00" fill-rule="nonzero" opacity="1" stroke="none"/>
<path d="M1457.65 465.122C1457.96 453.2 1466.82 443.765 1477.45 444.048C1488.07 444.331 1496.44 454.226 1496.13 466.147C1495.83 478.069 1486.96 487.505 1476.34 487.221C1465.71 486.938 1457.34 477.044 1457.65 465.122Z" fill="#f80000" fill-rule="nonzero" opacity="1" stroke="none"/>
<path d="M1437.57 596.528C1435.95 596.727 1434.62 597.942 1433.48 599.398C1434.16 612.398 1434.04 627.368 1433.45 643.283C1434.09 643.309 1434.75 643.31 1435.35 643.35C1436.73 643.442 1437.96 644.006 1439.4 643.65C1440.51 643.375 1440.66 642.679 1441.37 642.015C1441.53 641.866 1443.09 641.17 1443.13 641.147C1443.93 640.65 1444.26 639.656 1445 639.112C1445.68 638.602 1446.39 638.587 1447.04 637.943C1447.92 637.071 1448.17 636.104 1448.73 635.073C1449.35 633.911 1450.66 633.78 1450.38 632.07C1450.26 631.372 1449.73 630.948 1449.55 630.234C1449.3 629.227 1449.44 627.91 1449.01 626.964C1448.51 625.835 1446.78 625.297 1446.43 623.994C1445.92 622.098 1445.98 619.874 1445.82 617.92C1445.6 615.276 1444.68 611.977 1445.28 609.343C1445.57 608.084 1446.66 607.063 1446.86 605.772C1447.02 604.702 1446.72 603.575 1446.86 602.502C1446.9 602.172 1447.2 601.329 1447.04 600.933C1446.83 600.433 1440.05 596.929 1439.29 596.695C1438.68 596.506 1438.11 596.461 1437.57 596.528Z" fill="#f8ba00" fill-rule="nonzero" opacity="1" stroke="none"/>
<path d="M1460.38 634.806C1459.5 634.842 1458.61 634.934 1458.45 635.24C1458 636.071 1459.14 637.016 1459.41 637.91C1461.02 643.142 1464.8 649.525 1470.28 650.692C1473.25 651.324 1473.88 644.137 1472.43 641.214C1471.72 639.784 1464 634.909 1462.25 634.806C1462.14 634.8 1461.26 634.771 1460.38 634.806Z" fill="#f8ba00" fill-rule="nonzero" opacity="1" stroke="none"/>
<path d="M1443.85 649.891C1443.6 650.087 1443.61 650.477 1443.35 650.659C1442.36 651.343 1440.04 650.671 1438.86 651.259C1437.97 651.707 1437.73 652.718 1436.82 653.095C1435.72 653.547 1434.37 653.29 1433.09 653.161C1432.59 663.016 1431.87 673.205 1431.04 683.631C1431.07 683.629 1431.09 683.632 1431.11 683.631C1431.93 683.593 1433.42 683.46 1434.2 683.731C1435.48 684.177 1436.18 685.175 1437.64 685.266C1439.17 685.361 1443.5 685.442 1444.78 685.066C1445.62 684.818 1446.38 684.334 1447.25 684.198C1448.23 684.046 1449.36 684.184 1450.05 683.331C1450.94 682.231 1451.09 680.778 1452.03 679.693C1452.74 678.865 1453.96 678.889 1454.61 677.957C1456.32 675.501 1455.76 671.686 1455.76 668.88C1455.76 664.975 1455.51 657.117 1453.39 653.962C1452.92 653.265 1452.75 652.278 1452.03 651.726C1450.95 650.909 1451.67 651.682 1450.38 651.359C1449.6 651.166 1449.04 650.251 1448.29 649.991C1447.59 649.747 1444.28 649.553 1443.85 649.891Z" fill="#f8ba00" fill-rule="nonzero" opacity="1" stroke="none"/>
<path d="M1492.81 653.095C1489.95 653.719 1490.67 655.363 1488.54 656.432C1486.58 657.413 1483.45 656.111 1481.44 656.632C1480.11 656.975 1479.22 659.409 1478.1 660.17C1477.89 660.31 1475.03 661.737 1474.55 662.372C1473.92 663.216 1474.12 664.326 1473.83 665.242C1473.44 666.473 1472.42 667.483 1472.18 668.747C1471.44 672.648 1471.67 679.902 1473.62 683.531C1474.64 685.438 1476.79 687.293 1478.1 689.037C1479.9 691.435 1480.9 694.452 1484.02 695.645C1488.82 697.486 1498.55 699.796 1501.27 696.046C1501.57 683.094 1501.6 670.508 1501.34 658.501C1500.44 656.029 1495.38 652.532 1492.81 653.095Z" fill="#f8ba00" fill-rule="nonzero" opacity="1" stroke="none"/>
<path d="M1468.52 692.475C1467.87 692.521 1467.1 692.758 1466.19 693.209C1465.28 693.659 1464.6 694.465 1464 695.245C1461.98 697.886 1461.77 702.917 1462.64 705.957C1462.86 706.71 1463.38 707.383 1463.43 708.16C1463.69 711.712 1462.77 715.332 1463.22 718.873C1463.43 720.559 1464.71 721.328 1464.83 722.944C1465.05 726.013 1464.29 729.413 1465.62 732.355C1466.8 734.964 1471.88 733.021 1472.76 731.788C1474.07 729.94 1474.49 727.437 1475.73 725.514C1476.68 724.046 1478.65 722.401 1479.1 720.708C1479.5 719.226 1479.01 717.265 1479.1 715.736C1479.25 713.488 1479.68 711.364 1479.68 709.094C1479.68 708.472 1479.15 701.956 1478.71 701.686C1477.77 701.105 1476.39 702.061 1475.34 701.686C1472.24 700.576 1473.12 692.148 1468.52 692.475Z" fill="#f8ba00" fill-rule="nonzero" opacity="1" stroke="none"/>
<path d="M1429.54 701.953C1427.95 718.989 1426.02 736.187 1423.94 753.28C1426.25 752.086 1429.08 750.04 1431.08 749.509C1435.72 748.275 1438.97 744.617 1442.59 741.766C1445.26 739.665 1446.55 737.607 1448.55 734.925C1449.45 733.713 1450.84 733.397 1451.7 732.155C1454.67 727.864 1455.9 723.084 1455.9 718.138C1455.9 713.718 1453.59 709.351 1451.7 705.39C1451.15 704.232 1451.02 703.233 1449.51 702.82C1448.16 702.449 1440.7 701.85 1439.62 702.253C1437.08 703.197 1438.77 704.313 1435.85 704.456C1434.16 704.538 1432.41 702.95 1431.08 702.253C1430.62 702.014 1430.06 702.029 1429.54 701.953Z" fill="#f8ba00" fill-rule="nonzero" opacity="1" stroke="none"/>
<path d="M1488.29 721.242C1487.01 721.229 1485.55 721.662 1483.87 722.744C1481.53 724.255 1481.79 726.642 1481.47 729.018C1480.71 734.707 1480.05 740.634 1481.08 746.372C1481.42 748.298 1481.38 750.935 1482.87 752.479C1484.1 753.747 1485.68 753.041 1487.25 753.213C1490.45 753.564 1493.31 756.536 1496.28 755.149C1496.81 754.906 1497.07 754.549 1497.32 754.181C1497.55 752.28 1497.76 750.388 1497.97 748.508C1497.99 748.351 1497.94 748.194 1497.97 748.04C1497.99 747.931 1498.02 747.785 1498.04 747.673C1498.6 742.544 1498.85 737.702 1499.26 732.722C1498.9 731.331 1498.33 730.009 1497.36 728.851C1494.5 725.428 1492.13 721.281 1488.29 721.242Z" fill="#f8ba00" fill-rule="nonzero" opacity="1" stroke="none"/>
<path d="M1469.67 746.138C1468.75 746.291 1467.8 746.53 1467.38 746.572C1463.32 746.969 1460.04 746.645 1456.08 747.874C1455.15 748.163 1454.27 748.539 1453.32 748.775C1453.21 748.8 1450.91 748.697 1450.73 748.975C1450.43 749.45 1450.73 750.09 1450.73 750.644C1450.73 752.032 1450.39 753.956 1451.13 755.249C1451.6 756.08 1452.67 756.735 1453.32 757.452C1455.04 759.374 1454.76 764.894 1457.37 764.393C1462.67 763.377 1468.73 765.099 1472.54 760.222C1474.96 757.129 1476.07 748.845 1471.97 746.205C1471.53 745.921 1470.6 745.985 1469.67 746.138Z" fill="#f8ba00" fill-rule="nonzero" opacity="1" stroke="none"/>
<path d="M1423.51 756.884C1421.09 776.464 1418.54 794.27 1415.94 812.116C1415.97 812.163 1416.06 812.238 1416.09 812.283C1416.66 813.353 1415.66 819.4 1416.55 818.49C1424.16 810.741 1425.75 815.901 1433.95 813.518C1435.06 813.196 1435.6 811.993 1436.6 811.449C1441.35 808.873 1441.66 808.327 1444.64 803.973C1446.96 800.579 1451.17 798.886 1453.57 795.663C1455.48 793.098 1455.63 791.134 1456.69 788.188C1457.23 786.678 1458.62 784.187 1458.48 782.381C1458.2 778.743 1455.41 776.278 1453.57 773.27C1445.59 760.289 1437.25 757.398 1423.51 756.884Z" fill="#f8ba00" fill-rule="nonzero" opacity="1" stroke="none"/>
<path d="M1473.44 766.496C1472.03 766.462 1470.67 766.674 1469.64 767.463C1464.57 771.318 1467.6 781.223 1466.95 786.119C1466.49 789.501 1463.78 791.697 1463.36 795.263C1462.97 798.531 1464.8 802.481 1463.83 805.642C1463.56 806.493 1462.43 806.905 1462.03 807.711C1460.39 811.077 1461.6 818.08 1461.6 821.394C1461.6 824.197 1460.27 830.964 1462.93 833.441C1465.2 835.557 1468.22 836.858 1470.96 838.414C1473.6 839.909 1476.72 841.268 1479.82 841.618C1485.09 822.753 1489.2 804.734 1492.3 787.587C1492.34 783.75 1492.55 779.898 1491.48 776.174C1490.03 771.128 1482.67 767.882 1477.63 767.03C1476.32 766.807 1474.85 766.529 1473.44 766.496Z" fill="#f8ba00" fill-rule="nonzero" opacity="1" stroke="none"/>
<path d="M1442.45 387.892C1442.45 365.832 1456.63 347.948 1474.11 347.948C1491.6 347.948 1505.77 365.832 1505.77 387.892C1505.77 409.953 1491.6 427.837 1474.11 427.837C1456.63 427.837 1442.45 409.953 1442.45 387.892Z" fill="#120034" fill-rule="nonzero" opacity="1" stroke="none"/>
<path d="M1459.38 365.085C1459.38 361.364 1461.55 358.347 1464.22 358.347C1466.89 358.347 1469.06 361.364 1469.06 365.085C1469.06 368.806 1466.89 371.822 1464.22 371.822C1461.55 371.822 1459.38 368.806 1459.38 365.085Z" fill="#ffffff" fill-rule="nonzero" opacity="1" stroke="none"/>
<path d="M1153.53 1080.88C1144.91 1081.18 1136.13 1082.1 1127.31 1083.65C1157.71 1082.73 1191.95 1084.36 1212.89 1094.16C1242 1107.8 1252.26 1135.28 1254.85 1161.37C1265.19 1106.72 1213.81 1078.74 1153.53 1080.88Z" fill="#b83d00" fill-rule="nonzero" opacity="0.5" stroke="none"/>
</g>
</g>
</svg>
